<svg width="441" height="200" viewBox="0 0 441 200" fill="none" xmlns="http://www.w3.org/2000/svg">
<rect x="0.812012" width="440" height="200" rx="12" fill="#081028" fill-opacity="0.8"/>
<g filter="url(#filter1_d_123_831)">
<rect x="16.812" y="32" width="200" height="48" rx="8" fill="black" fill-opacity="0.2" shape-rendering="crispEdges"/>
<rect x="28.812" y="44" width="24" height="24" rx="12" fill="#5AB9EA" fill-opacity="0.1"/>
<path d="M46.272 52.1818H35.872C35.7341 52.1818 35.6018 52.1244 35.5043 52.0221C35.4068 51.9198 35.352 51.781 35.352 51.6364C35.352 51.4917 35.4068 51.353 35.5043 51.2507C35.6018 51.1484 35.7341 51.0909 35.872 51.0909H44.712C44.8499 51.0909 44.9822 51.0334 45.0797 50.9311C45.1772 50.8289 45.232 50.6901 45.232 50.5455C45.232 50.4008 45.1772 50.2621 45.0797 50.1598C44.9822 50.0575 44.8499 50 44.712 50H35.872C35.4583 50 35.0615 50.1724 34.7689 50.4793C34.4764 50.7862 34.312 51.2024 34.312 51.6364V60.3636C34.312 60.7976 34.4764 61.2138 34.7689 61.5207C35.0615 61.8276 35.4583 62 35.872 62H46.272C46.5478 62 46.8124 61.8851 47.0074 61.6805C47.2024 61.4759 47.312 61.1984 47.312 60.9091V53.2727C47.312 52.9834 47.2024 52.7059 47.0074 52.5013C46.8124 52.2968 46.5478 52.1818 46.272 52.1818ZM46.272 60.9091H35.872C35.7341 60.9091 35.6018 60.8516 35.5043 60.7493C35.4068 60.647 35.352 60.5083 35.352 60.3636V53.1793C35.519 53.2414 35.6949 53.273 35.872 53.2727H46.272V60.9091ZM43.152 56.8182C43.152 56.6564 43.1978 56.4982 43.2835 56.3636C43.3692 56.2291 43.491 56.1242 43.6335 56.0623C43.776 56.0004 43.9329 55.9842 44.0842 56.0157C44.2355 56.0473 44.3745 56.1252 44.4836 56.2396C44.5926 56.3541 44.6669 56.4999 44.697 56.6586C44.7271 56.8173 44.7117 56.9818 44.6526 57.1313C44.5936 57.2808 44.4936 57.4086 44.3654 57.4985C44.2371 57.5884 44.0863 57.6364 43.932 57.6364C43.7251 57.6364 43.5267 57.5502 43.3805 57.3967C43.2342 57.2433 43.152 57.0352 43.152 56.8182Z" fill="#5AB9EA"/>
<path d="M64.46 51.084C63.9 51.084 63.396 50.988 62.948 50.796C62.5 50.596 62.148 50.316 61.892 49.956C61.636 49.596 61.508 49.176 61.508 48.696H62.972C63.004 49.072 63.144 49.38 63.392 49.62C63.648 49.86 64.004 49.98 64.46 49.98C64.932 49.98 65.3 49.864 65.564 49.632C65.828 49.392 65.96 49.084 65.96 48.708C65.96 48.428 65.876 48.2 65.708 48.024C65.548 47.848 65.344 47.712 65.096 47.616C64.856 47.52 64.52 47.416 64.088 47.304C63.544 47.16 63.1 47.016 62.756 46.872C62.42 46.72 62.132 46.488 61.892 46.176C61.652 45.864 61.532 45.448 61.532 44.928C61.532 44.448 61.652 44.028 61.892 43.668C62.132 43.308 62.468 43.032 62.9 42.84C63.332 42.648 63.832 42.552 64.4 42.552C65.208 42.552 65.868 42.756 66.38 43.164C66.9 43.564 67.188 44.116 67.244 44.82H65.732C65.708 44.492 65.564 44.22 65.3 44.004C65.044 43.78 64.696 43.668 64.256 43.668C63.856 43.668 63.532 43.772 63.284 43.98C63.044 44.18 62.924 44.48 62.924 44.88C62.924 45.136 63 45.348 63.152 45.516C63.312 45.676 63.512 45.804 63.752 45.9C63.992 45.996 64.32 46.1 64.736 46.212C65.288 46.364 65.736 46.516 66.08 46.668C66.432 46.82 66.728 47.056 66.968 47.376C67.216 47.688 67.34 48.108 67.34 48.636C67.34 49.06 67.224 49.46 66.992 49.836C66.768 50.212 66.436 50.516 65.996 50.748C65.564 50.972 65.052 51.084 64.46 51.084ZM74.9422 44.388V51H73.5742V50.22C73.3582 50.492 73.0742 50.708 72.7222 50.868C72.3782 51.02 72.0102 51.096 71.6182 51.096C71.0982 51.096 70.6302 50.988 70.2142 50.772C69.8062 50.556 69.4822 50.236 69.2422 49.812C69.0102 49.388 68.8942 48.876 68.8942 48.276V44.388H70.2502V48.072C70.2502 48.664 70.3982 49.12 70.6942 49.44C70.9902 49.752 71.3942 49.908 71.9062 49.908C72.4182 49.908 72.8222 49.752 73.1182 49.44C73.4222 49.12 73.5742 48.664 73.5742 48.072V44.388H74.9422ZM78.1152 45.372C78.3472 45.052 78.6632 44.792 79.0632 44.592C79.4712 44.384 79.9232 44.28 80.4192 44.28C81.0032 44.28 81.5312 44.42 82.0032 44.7C82.4752 44.98 82.8472 45.38 83.1192 45.9C83.3912 46.412 83.5272 47 83.5272 47.664C83.5272 48.328 83.3912 48.924 83.1192 49.452C82.8472 49.972 82.4712 50.38 81.9912 50.676C81.5192 50.964 80.9952 51.108 80.4192 51.108C79.9072 51.108 79.4512 51.008 79.0512 50.808C78.6592 50.608 78.3472 50.352 78.1152 50.04V51H76.7472V42.12H78.1152V45.372ZM82.1352 47.664C82.1352 47.208 82.0392 46.816 81.8472 46.488C81.6632 46.152 81.4152 45.9 81.1032 45.732C80.7992 45.556 80.4712 45.468 80.1192 45.468C79.7752 45.468 79.4472 45.556 79.1352 45.732C78.8312 45.908 78.5832 46.164 78.3912 46.5C78.2072 46.836 78.1152 47.232 78.1152 47.688C78.1152 48.144 78.2072 48.544 78.3912 48.888C78.5832 49.224 78.8312 49.48 79.1352 49.656C79.4472 49.832 79.7752 49.92 80.1192 49.92C80.4712 49.92 80.7992 49.832 81.1032 49.656C81.4152 49.472 81.6632 49.208 81.8472 48.864C82.0392 48.52 82.1352 48.12 82.1352 47.664ZM87.256 51.108C86.744 51.108 86.284 51.016 85.876 50.832C85.468 50.64 85.144 50.384 84.904 50.064C84.664 49.736 84.536 49.372 84.52 48.972H85.936C85.96 49.276 86.092 49.528 86.332 49.728C86.58 49.928 86.888 50.028 87.256 50.028C87.64 50.028 87.936 49.952 88.144 49.8C88.36 49.64 88.468 49.428 88.468 49.164C88.468 48.924 88.348 48.74 88.108 48.612C87.868 48.484 87.496 48.356 86.992 48.228C86.504 48.092 86.104 47.964 85.792 47.844C85.488 47.716 85.224 47.524 85 47.268C84.776 47.004 84.664 46.664 84.664 46.248C84.664 45.888 84.764 45.56 84.964 45.264C85.164 44.96 85.452 44.72 85.828 44.544C86.212 44.368 86.66 44.28 87.172 44.28C87.924 44.28 88.528 44.472 88.984 44.856C89.448 45.232 89.696 45.748 89.728 46.404H88.36C88.336 46.084 88.216 45.832 88 45.648C87.784 45.456 87.492 45.36 87.124 45.36C86.764 45.36 86.488 45.436 86.296 45.588C86.104 45.732 86.008 45.928 86.008 46.176C86.008 46.352 86.072 46.5 86.2 46.62C86.328 46.74 86.488 46.836 86.68 46.908C86.872 46.972 87.144 47.052 87.496 47.148C87.976 47.276 88.368 47.404 88.672 47.532C88.976 47.66 89.236 47.856 89.452 48.12C89.668 48.376 89.776 48.712 89.776 49.128C89.776 49.504 89.676 49.844 89.476 50.148C89.276 50.444 88.984 50.68 88.6 50.856C88.224 51.024 87.776 51.108 87.256 51.108ZM90.8341 47.688C90.8341 47.008 90.9701 46.412 91.2421 45.9C91.5221 45.38 91.9061 44.98 92.3941 44.7C92.8821 44.42 93.4421 44.28 94.0741 44.28C94.8741 44.28 95.5341 44.472 96.0541 44.856C96.5821 45.232 96.9381 45.772 97.1221 46.476H95.6461C95.5261 46.148 95.3341 45.892 95.0701 45.708C94.8061 45.524 94.4741 45.432 94.0741 45.432C93.5141 45.432 93.0661 45.632 92.7301 46.032C92.4021 46.424 92.2381 46.976 92.2381 47.688C92.2381 48.4 92.4021 48.956 92.7301 49.356C93.0661 49.756 93.5141 49.956 94.0741 49.956C94.8661 49.956 95.3901 49.608 95.6461 48.912H97.1221C96.9301 49.584 96.5701 50.12 96.0421 50.52C95.5141 50.912 94.8581 51.108 94.0741 51.108C93.4421 51.108 92.8821 50.968 92.3941 50.688C91.9061 50.4 91.5221 50 91.2421 49.488C90.9701 48.968 90.8341 48.368 90.8341 47.688ZM99.8534 45.54C100.053 45.14 100.317 44.832 100.645 44.616C100.981 44.392 101.377 44.28 101.833 44.28V45.696H101.485C100.949 45.696 100.541 45.832 100.261 46.104C99.9894 46.376 99.8534 46.848 99.8534 47.52V51H98.4854V44.388H99.8534V45.54ZM103.787 43.512C103.539 43.512 103.331 43.428 103.163 43.26C102.995 43.092 102.911 42.884 102.911 42.636C102.911 42.388 102.995 42.18 103.163 42.012C103.331 41.844 103.539 41.76 103.787 41.76C104.027 41.76 104.231 41.844 104.399 42.012C104.567 42.18 104.651 42.388 104.651 42.636C104.651 42.884 104.567 43.092 104.399 43.26C104.231 43.428 104.027 43.512 103.787 43.512ZM104.459 44.388V51H103.091V44.388H104.459ZM107.623 45.36C107.855 45.056 108.171 44.8 108.571 44.592C108.971 44.384 109.423 44.28 109.927 44.28C110.503 44.28 111.027 44.424 111.499 44.712C111.979 44.992 112.355 45.388 112.627 45.9C112.899 46.412 113.035 47 113.035 47.664C113.035 48.328 112.899 48.924 112.627 49.452C112.355 49.972 111.979 50.38 111.499 50.676C111.027 50.964 110.503 51.108 109.927 51.108C109.423 51.108 108.975 51.008 108.583 50.808C108.191 50.6 107.871 50.344 107.623 50.04V54.144H106.255V44.388H107.623V45.36ZM111.643 47.664C111.643 47.208 111.547 46.816 111.355 46.488C111.171 46.152 110.923 45.9 110.611 45.732C110.307 45.556 109.979 45.468 109.627 45.468C109.283 45.468 108.955 45.556 108.643 45.732C108.339 45.908 108.091 46.164 107.899 46.5C107.715 46.836 107.623 47.232 107.623 47.688C107.623 48.144 107.715 48.544 107.899 48.888C108.091 49.224 108.339 49.48 108.643 49.656C108.955 49.832 109.283 49.92 109.627 49.92C109.979 49.92 110.307 49.832 110.611 49.656C110.923 49.472 111.171 49.208 111.355 48.864C111.547 48.52 111.643 48.12 111.643 47.664ZM115.984 45.504V49.164C115.984 49.412 116.04 49.592 116.152 49.704C116.272 49.808 116.472 49.86 116.752 49.86H117.592V51H116.512C115.896 51 115.424 50.856 115.096 50.568C114.768 50.28 114.604 49.812 114.604 49.164V45.504H113.824V44.388H114.604V42.744H115.984V44.388H117.592V45.504H115.984ZM119.549 43.512C119.301 43.512 119.093 43.428 118.925 43.26C118.757 43.092 118.673 42.884 118.673 42.636C118.673 42.388 118.757 42.18 118.925 42.012C119.093 41.844 119.301 41.76 119.549 41.76C119.789 41.76 119.993 41.844 120.161 42.012C120.329 42.18 120.413 42.388 120.413 42.636C120.413 42.884 120.329 43.092 120.161 43.26C119.993 43.428 119.789 43.512 119.549 43.512ZM120.221 44.388V51H118.853V44.388H120.221ZM124.885 51.108C124.261 51.108 123.697 50.968 123.193 50.688C122.689 50.4 122.293 50 122.005 49.488C121.717 48.968 121.573 48.368 121.573 47.688C121.573 47.016 121.721 46.42 122.017 45.9C122.313 45.38 122.717 44.98 123.229 44.7C123.741 44.42 124.313 44.28 124.945 44.28C125.577 44.28 126.149 44.42 126.661 44.7C127.173 44.98 127.577 45.38 127.873 45.9C128.169 46.42 128.317 47.016 128.317 47.688C128.317 48.36 128.165 48.956 127.861 49.476C127.557 49.996 127.141 50.4 126.613 50.688C126.093 50.968 125.517 51.108 124.885 51.108ZM124.885 49.956C125.237 49.956 125.565 49.868 125.869 49.692C126.181 49.516 126.433 49.26 126.625 48.924C126.817 48.58 126.913 48.168 126.913 47.688C126.913 47.208 126.821 46.8 126.637 46.464C126.453 46.12 126.209 45.864 125.905 45.696C125.601 45.52 125.273 45.432 124.921 45.432C124.569 45.432 124.245 45.52 123.949 45.696C123.653 45.864 123.413 46.12 123.229 46.464C123.053 46.8 122.965 47.208 122.965 47.688C122.965 48.168 123.049 48.58 123.217 48.924C123.393 49.268 123.625 49.528 123.913 49.704C124.209 49.872 124.533 49.956 124.885 49.956ZM133.005 44.28C133.525 44.28 133.989 44.388 134.397 44.604C134.813 44.82 135.137 45.14 135.369 45.564C135.601 45.988 135.717 46.5 135.717 47.1V51H134.361V47.304C134.361 46.712 134.213 46.26 133.917 45.948C133.621 45.628 133.217 45.468 132.705 45.468C132.193 45.468 131.785 45.628 131.481 45.948C131.185 46.26 131.037 46.712 131.037 47.304V51H129.669V44.388H131.037V45.144C131.261 44.872 131.545 44.66 131.889 44.508C132.241 44.356 132.613 44.28 133.005 44.28ZM63.08 60.66V69H61.712V60.66H63.08ZM68.2121 62.28C68.7321 62.28 69.1961 62.388 69.6041 62.604C70.0201 62.82 70.3441 63.14 70.5761 63.564C70.8081 63.988 70.9241 64.5 70.9241 65.1V69H69.5681V65.304C69.5681 64.712 69.4201 64.26 69.1241 63.948C68.8281 63.628 68.4241 63.468 67.9121 63.468C67.4001 63.468 66.9921 63.628 66.6881 63.948C66.3921 64.26 66.2441 64.712 66.2441 65.304V69H64.8761V62.388H66.2441V63.144C66.4681 62.872 66.7521 62.66 67.0961 62.508C67.4481 62.356 67.8201 62.28 68.2121 62.28ZM74.265 63.504V67.164C74.265 67.412 74.321 67.592 74.433 67.704C74.553 67.808 74.753 67.86 75.033 67.86H75.873V69H74.793C74.177 69 73.705 68.856 73.377 68.568C73.049 68.28 72.885 67.812 72.885 67.164V63.504H72.105V62.388H72.885V60.744H74.265V62.388H75.873V63.504H74.265ZM83.1939 65.508C83.1939 65.74 83.1779 65.956 83.1459 66.156H78.0819C78.1219 66.708 78.3179 67.148 78.6699 67.476C79.0219 67.796 79.4579 67.956 79.9779 67.956C80.7139 67.956 81.2339 67.648 81.5379 67.032H83.0139C82.8139 67.64 82.4499 68.14 81.9219 68.532C81.4019 68.916 80.7539 69.108 79.9779 69.108C79.3459 69.108 78.7779 68.968 78.2739 68.688C77.7779 68.4 77.3859 68 77.0979 67.488C76.8179 66.968 76.6779 66.368 76.6779 65.688C76.6779 65.008 76.8139 64.412 77.0859 63.9C77.3659 63.38 77.7539 62.98 78.2499 62.7C78.7539 62.42 79.3299 62.28 79.9779 62.28C80.6019 62.28 81.1579 62.416 81.6459 62.688C82.1339 62.96 82.5139 63.34 82.7859 63.828C83.0579 64.316 83.1939 64.876 83.1939 65.508ZM81.7659 65.172C81.7579 64.636 81.5779 64.212 81.2259 63.9C80.8819 63.588 80.4459 63.432 79.9179 63.432C79.4379 63.432 79.0259 63.588 78.6819 63.9C78.3459 64.212 78.1499 64.636 78.0939 65.172H81.7659ZM87.2041 62.28C87.7161 62.28 88.1681 62.384 88.5601 62.592C88.9601 62.792 89.2721 63.044 89.4961 63.348V62.388H90.8761V69.108C90.8761 69.716 90.7481 70.256 90.4921 70.728C90.2361 71.208 89.8641 71.584 89.3761 71.856C88.8961 72.128 88.3201 72.264 87.6481 72.264C86.7521 72.264 86.0081 72.052 85.4161 71.628C84.8241 71.212 84.4881 70.644 84.4081 69.924H85.7641C85.8681 70.268 86.0881 70.544 86.4241 70.752C86.7681 70.968 87.1761 71.076 87.6481 71.076C88.2001 71.076 88.6441 70.908 88.9801 70.572C89.3241 70.236 89.4961 69.748 89.4961 69.108V68.004C89.2641 68.316 88.9481 68.58 88.5481 68.796C88.1561 69.004 87.7081 69.108 87.2041 69.108C86.6281 69.108 86.1001 68.964 85.6201 68.676C85.1481 68.38 84.7721 67.972 84.4921 67.452C84.2201 66.924 84.0841 66.328 84.0841 65.664C84.0841 65 84.2201 64.412 84.4921 63.9C84.7721 63.388 85.1481 62.992 85.6201 62.712C86.1001 62.424 86.6281 62.28 87.2041 62.28ZM89.4961 65.688C89.4961 65.232 89.4001 64.836 89.2081 64.5C89.0241 64.164 88.7801 63.908 88.4761 63.732C88.1721 63.556 87.8441 63.468 87.4921 63.468C87.1401 63.468 86.8121 63.556 86.5081 63.732C86.2041 63.9 85.9561 64.152 85.7641 64.488C85.5801 64.816 85.4881 65.208 85.4881 65.664C85.4881 66.12 85.5801 66.52 85.7641 66.864C85.9561 67.208 86.2041 67.472 86.5081 67.656C86.8201 67.832 87.1481 67.92 87.4921 67.92C87.8441 67.92 88.1721 67.832 88.4761 67.656C88.7801 67.48 89.0241 67.224 89.2081 66.888C89.4001 66.544 89.4961 66.144 89.4961 65.688ZM94.0409 63.54C94.2409 63.14 94.5049 62.832 94.8329 62.616C95.1689 62.392 95.5649 62.28 96.0209 62.28V63.696H95.6729C95.1369 63.696 94.7289 63.832 94.4489 64.104C94.1769 64.376 94.0409 64.848 94.0409 65.52V69H92.6729V62.388H94.0409V63.54ZM96.8224 65.664C96.8224 65 96.9584 64.412 97.2304 63.9C97.5104 63.388 97.8864 62.992 98.3584 62.712C98.8384 62.424 99.3664 62.28 99.9424 62.28C100.462 62.28 100.914 62.384 101.298 62.592C101.69 62.792 102.002 63.044 102.234 63.348V62.388H103.614V69H102.234V68.016C102.002 68.328 101.686 68.588 101.286 68.796C100.886 69.004 100.43 69.108 99.9184 69.108C99.3504 69.108 98.8304 68.964 98.3584 68.676C97.8864 68.38 97.5104 67.972 97.2304 67.452C96.9584 66.924 96.8224 66.328 96.8224 65.664ZM102.234 65.688C102.234 65.232 102.138 64.836 101.946 64.5C101.762 64.164 101.518 63.908 101.214 63.732C100.91 63.556 100.582 63.468 100.23 63.468C99.8784 63.468 99.5504 63.556 99.2464 63.732C98.9424 63.9 98.6944 64.152 98.5024 64.488C98.3184 64.816 98.2264 65.208 98.2264 65.664C98.2264 66.12 98.3184 66.52 98.5024 66.864C98.6944 67.208 98.9424 67.472 99.2464 67.656C99.5584 67.832 99.8864 67.92 100.23 67.92C100.582 67.92 100.91 67.832 101.214 67.656C101.518 67.48 101.762 67.224 101.946 66.888C102.138 66.544 102.234 66.144 102.234 65.688ZM107.007 63.504V67.164C107.007 67.412 107.063 67.592 107.175 67.704C107.295 67.808 107.495 67.86 107.775 67.86H108.615V69H107.535C106.919 69 106.447 68.856 106.119 68.568C105.791 68.28 105.627 67.812 105.627 67.164V63.504H104.847V62.388H105.627V60.744H107.007V62.388H108.615V63.504H107.007ZM110.572 61.512C110.324 61.512 110.116 61.428 109.948 61.26C109.78 61.092 109.696 60.884 109.696 60.636C109.696 60.388 109.78 60.18 109.948 60.012C110.116 59.844 110.324 59.76 110.572 59.76C110.812 59.76 111.016 59.844 111.184 60.012C111.352 60.18 111.436 60.388 111.436 60.636C111.436 60.884 111.352 61.092 111.184 61.26C111.016 61.428 110.812 61.512 110.572 61.512ZM111.244 62.388V69H109.876V62.388H111.244ZM115.908 69.108C115.284 69.108 114.72 68.968 114.216 68.688C113.712 68.4 113.316 68 113.028 67.488C112.74 66.968 112.596 66.368 112.596 65.688C112.596 65.016 112.744 64.42 113.04 63.9C113.336 63.38 113.74 62.98 114.252 62.7C114.764 62.42 115.336 62.28 115.968 62.28C116.6 62.28 117.172 62.42 117.684 62.7C118.196 62.98 118.6 63.38 118.896 63.9C119.192 64.42 119.34 65.016 119.34 65.688C119.34 66.36 119.188 66.956 118.884 67.476C118.58 67.996 118.164 68.4 117.636 68.688C117.116 68.968 116.54 69.108 115.908 69.108ZM115.908 67.956C116.26 67.956 116.588 67.868 116.892 67.692C117.204 67.516 117.456 67.26 117.648 66.924C117.84 66.58 117.936 66.168 117.936 65.688C117.936 65.208 117.844 64.8 117.66 64.464C117.476 64.12 117.232 63.864 116.928 63.696C116.624 63.52 116.296 63.432 115.944 63.432C115.592 63.432 115.268 63.52 114.972 63.696C114.676 63.864 114.436 64.12 114.252 64.464C114.076 64.8 113.988 65.208 113.988 65.688C113.988 66.168 114.072 66.58 114.24 66.924C114.416 67.268 114.648 67.528 114.936 67.704C115.232 67.872 115.556 67.956 115.908 67.956ZM124.028 62.28C124.548 62.28 125.012 62.388 125.42 62.604C125.836 62.82 126.16 63.14 126.392 63.564C126.624 63.988 126.74 64.5 126.74 65.1V69H125.384V65.304C125.384 64.712 125.236 64.26 124.94 63.948C124.644 63.628 124.24 63.468 123.728 63.468C123.216 63.468 122.808 63.628 122.504 63.948C122.208 64.26 122.06 64.712 122.06 65.304V69H120.692V62.388H122.06V63.144C122.284 62.872 122.568 62.66 122.912 62.508C123.264 62.356 123.636 62.28 124.028 62.28Z" fill="#E2E2E2"/>
</g>
<g filter="url(#filter2_d_123_831)">
<rect x="16.812" y="88" width="200" height="36" rx="8" fill="black" fill-opacity="0.2" shape-rendering="crispEdges"/>
<rect x="28.812" y="94" width="24" height="24" rx="12" fill="#5AB9EA" fill-opacity="0.1"/>
<path d="M42.1453 105.571H41.2565V102.143H41.7009C42.1724 102.143 42.6246 102.323 42.958 102.645C43.2914 102.966 43.4787 103.402 43.4787 103.857C43.4787 103.971 43.5255 104.08 43.6089 104.16C43.6922 104.241 43.8052 104.286 43.9231 104.286C44.041 104.286 44.154 104.241 44.2374 104.16C44.3207 104.08 44.3676 103.971 44.3676 103.857C44.3668 103.175 44.0856 102.522 43.5857 102.04C43.0858 101.558 42.4079 101.286 41.7009 101.286H41.2565V100.429C41.2565 100.315 41.2096 100.206 41.1263 100.126C41.0429 100.045 40.9299 100 40.812 100C40.6941 100 40.5811 100.045 40.4977 100.126C40.4144 100.206 40.3676 100.315 40.3676 100.429V101.286H39.9231C39.2159 101.286 38.5376 101.557 38.0375 102.039C37.5374 102.521 37.2565 103.175 37.2565 103.857C37.2565 104.539 37.5374 105.193 38.0375 105.675C38.5376 106.158 39.2159 106.429 39.9231 106.429H40.3676V109.857H39.4787C39.0072 109.857 38.555 109.677 38.2216 109.355C37.8882 109.034 37.7009 108.598 37.7009 108.143C37.7009 108.029 37.6541 107.92 37.5707 107.84C37.4874 107.759 37.3743 107.714 37.2565 107.714C37.1386 107.714 37.0255 107.759 36.9422 107.84C36.8588 107.92 36.812 108.029 36.812 108.143C36.8127 108.825 37.0939 109.478 37.5939 109.96C38.0938 110.442 38.7717 110.714 39.4787 110.714H40.3676V111.571C40.3676 111.685 40.4144 111.794 40.4977 111.874C40.5811 111.955 40.6941 112 40.812 112C40.9299 112 41.0429 111.955 41.1263 111.874C41.2096 111.794 41.2565 111.685 41.2565 111.571V110.714H42.1453C42.8526 110.714 43.5309 110.443 44.031 109.961C44.5311 109.479 44.812 108.825 44.812 108.143C44.812 107.461 44.5311 106.807 44.031 106.325C43.5309 105.842 42.8526 105.571 42.1453 105.571ZM39.9231 105.571C39.4516 105.571 38.9994 105.391 38.666 105.069C38.3326 104.748 38.1453 104.312 38.1453 103.857C38.1453 103.402 38.3326 102.966 38.666 102.645C38.9994 102.323 39.4516 102.143 39.9231 102.143H40.3676V105.571H39.9231ZM42.1453 109.857H41.2565V106.429H42.1453C42.6168 106.429 43.069 106.609 43.4024 106.931C43.7358 107.252 43.9231 107.688 43.9231 108.143C43.9231 108.598 43.7358 109.034 43.4024 109.355C43.069 109.677 42.6168 109.857 42.1453 109.857Z" fill="#009DE0"/>
<path d="M63.217 109.713H67.416V111H61.462V109.843L65.648 103.252H61.462V101.965H67.416V103.122L63.217 109.713ZM75.601 107.217C75.601 107.468 75.5837 107.702 75.549 107.919H70.063C70.1064 108.517 70.3187 108.994 70.7 109.349C71.0814 109.696 71.5537 109.869 72.117 109.869C72.9144 109.869 73.4777 109.535 73.807 108.868H75.406C75.1894 109.527 74.795 110.068 74.223 110.493C73.6597 110.909 72.9577 111.117 72.117 111.117C71.4324 111.117 70.817 110.965 70.271 110.662C69.7337 110.35 69.309 109.917 68.997 109.362C68.6937 108.799 68.542 108.149 68.542 107.412C68.542 106.675 68.6894 106.03 68.984 105.475C69.2874 104.912 69.7077 104.478 70.245 104.175C70.791 103.872 71.415 103.72 72.117 103.72C72.793 103.72 73.3954 103.867 73.924 104.162C74.4527 104.457 74.8644 104.868 75.159 105.397C75.4537 105.926 75.601 106.532 75.601 107.217ZM74.054 106.853C74.0454 106.272 73.8504 105.813 73.469 105.475C73.0964 105.137 72.624 104.968 72.052 104.968C71.532 104.968 71.0857 105.137 70.713 105.475C70.349 105.813 70.1367 106.272 70.076 106.853H74.054ZM78.5415 105.085C78.7581 104.652 79.0441 104.318 79.3995 104.084C79.7635 103.841 80.1925 103.72 80.6865 103.72V105.254H80.3095C79.7288 105.254 79.2868 105.401 78.9835 105.696C78.6888 105.991 78.5415 106.502 78.5415 107.23V111H77.0595V103.837H78.5415V105.085ZM85.1557 111.117C84.4797 111.117 83.8687 110.965 83.3227 110.662C82.7767 110.35 82.3477 109.917 82.0357 109.362C81.7237 108.799 81.5677 108.149 81.5677 107.412C81.5677 106.684 81.7281 106.038 82.0487 105.475C82.3694 104.912 82.8071 104.478 83.3617 104.175C83.9164 103.872 84.5361 103.72 85.2207 103.72C85.9054 103.72 86.5251 103.872 87.0797 104.175C87.6344 104.478 88.0721 104.912 88.3927 105.475C88.7134 106.038 88.8737 106.684 88.8737 107.412C88.8737 108.14 88.7091 108.786 88.3797 109.349C88.0504 109.912 87.5997 110.35 87.0277 110.662C86.4644 110.965 85.8404 111.117 85.1557 111.117ZM85.1557 109.869C85.5371 109.869 85.8924 109.774 86.2217 109.583C86.5597 109.392 86.8327 109.115 87.0407 108.751C87.2487 108.378 87.3527 107.932 87.3527 107.412C87.3527 106.892 87.2531 106.45 87.0537 106.086C86.8544 105.713 86.5901 105.436 86.2607 105.254C85.9314 105.063 85.5761 104.968 85.1947 104.968C84.8134 104.968 84.4624 105.063 84.1417 105.254C83.8211 105.436 83.5611 105.713 83.3617 106.086C83.1711 106.45 83.0757 106.892 83.0757 107.412C83.0757 107.932 83.1667 108.378 83.3487 108.751C83.5394 109.124 83.7907 109.405 84.1027 109.596C84.4234 109.778 84.7744 109.869 85.1557 109.869ZM99.5532 101.965V103.122H95.7182V105.865H98.7082V107.009H95.7182V111H94.2362V101.965H99.5532ZM107.492 107.217C107.492 107.468 107.474 107.702 107.44 107.919H101.954C101.997 108.517 102.209 108.994 102.591 109.349C102.972 109.696 103.444 109.869 104.008 109.869C104.805 109.869 105.368 109.535 105.698 108.868H107.297C107.08 109.527 106.686 110.068 106.114 110.493C105.55 110.909 104.848 111.117 104.008 111.117C103.323 111.117 102.708 110.965 102.162 110.662C101.624 110.35 101.2 109.917 100.888 109.362C100.584 108.799 100.433 108.149 100.433 107.412C100.433 106.675 100.58 106.03 100.875 105.475C101.178 104.912 101.598 104.478 102.136 104.175C102.682 103.872 103.306 103.72 104.008 103.72C104.684 103.72 105.286 103.867 105.815 104.162C106.343 104.457 106.755 104.868 107.05 105.397C107.344 105.926 107.492 106.532 107.492 107.217ZM105.945 106.853C105.936 106.272 105.741 105.813 105.36 105.475C104.987 105.137 104.515 104.968 103.943 104.968C103.423 104.968 102.976 105.137 102.604 105.475C102.24 105.813 102.027 106.272 101.967 106.853H105.945ZM115.515 107.217C115.515 107.468 115.498 107.702 115.463 107.919H109.977C110.02 108.517 110.233 108.994 110.614 109.349C110.995 109.696 111.468 109.869 112.031 109.869C112.828 109.869 113.392 109.535 113.721 108.868H115.32C115.103 109.527 114.709 110.068 114.137 110.493C113.574 110.909 112.872 111.117 112.031 111.117C111.346 111.117 110.731 110.965 110.185 110.662C109.648 110.35 109.223 109.917 108.911 109.362C108.608 108.799 108.456 108.149 108.456 107.412C108.456 106.675 108.603 106.03 108.898 105.475C109.201 104.912 109.622 104.478 110.159 104.175C110.705 103.872 111.329 103.72 112.031 103.72C112.707 103.72 113.309 103.867 113.838 104.162C114.367 104.457 114.778 104.868 115.073 105.397C115.368 105.926 115.515 106.532 115.515 107.217ZM113.968 106.853C113.959 106.272 113.764 105.813 113.383 105.475C113.01 105.137 112.538 104.968 111.966 104.968C111.446 104.968 111 105.137 110.627 105.475C110.263 105.813 110.051 106.272 109.99 106.853H113.968ZM119.548 111.117C118.993 111.117 118.495 111.017 118.053 110.818C117.611 110.61 117.26 110.333 117 109.986C116.74 109.631 116.601 109.236 116.584 108.803H118.118C118.144 109.132 118.287 109.405 118.547 109.622C118.815 109.839 119.149 109.947 119.548 109.947C119.964 109.947 120.284 109.865 120.51 109.7C120.744 109.527 120.861 109.297 120.861 109.011C120.861 108.751 120.731 108.552 120.471 108.413C120.211 108.274 119.808 108.136 119.262 107.997C118.733 107.85 118.3 107.711 117.962 107.581C117.632 107.442 117.346 107.234 117.104 106.957C116.861 106.671 116.74 106.303 116.74 105.852C116.74 105.462 116.848 105.107 117.065 104.786C117.281 104.457 117.593 104.197 118.001 104.006C118.417 103.815 118.902 103.72 119.457 103.72C120.271 103.72 120.926 103.928 121.42 104.344C121.922 104.751 122.191 105.31 122.226 106.021H120.744C120.718 105.674 120.588 105.401 120.354 105.202C120.12 104.994 119.803 104.89 119.405 104.89C119.015 104.89 118.716 104.972 118.508 105.137C118.3 105.293 118.196 105.505 118.196 105.774C118.196 105.965 118.265 106.125 118.404 106.255C118.542 106.385 118.716 106.489 118.924 106.567C119.132 106.636 119.426 106.723 119.808 106.827C120.328 106.966 120.752 107.104 121.082 107.243C121.411 107.382 121.693 107.594 121.927 107.88C122.161 108.157 122.278 108.521 122.278 108.972C122.278 109.379 122.169 109.748 121.953 110.077C121.736 110.398 121.42 110.653 121.004 110.844C120.596 111.026 120.111 111.117 119.548 111.117Z" fill="#E2E2E2"/>
</g>
<g filter="url(#filter3_d_123_831)">
<rect x="16.812" y="132" width="200" height="36" rx="8" fill="black" fill-opacity="0.2" shape-rendering="crispEdges"/>
<rect x="28.812" y="138" width="24" height="24" rx="12" fill="#5AB9EA" fill-opacity="0.1"/>
<path d="M43.4462 148.289C43.4892 148.332 43.5232 148.383 43.5464 148.439C43.5697 148.495 43.5816 148.555 43.5816 148.615C43.5816 148.676 43.5697 148.736 43.5464 148.792C43.5232 148.848 43.4892 148.899 43.4462 148.942L40.2155 152.173C40.1726 152.216 40.1217 152.25 40.0657 152.273C40.0096 152.296 39.9496 152.308 39.8889 152.308C39.8283 152.308 39.7682 152.296 39.7122 152.273C39.6562 152.25 39.6053 152.216 39.5624 152.173L38.1778 150.788C38.0912 150.701 38.0425 150.584 38.0425 150.462C38.0425 150.339 38.0912 150.222 38.1778 150.135C38.2644 150.048 38.3818 150 38.5043 150C38.6268 150 38.7443 150.048 38.8309 150.135L39.8889 151.194L42.7932 148.289C42.836 148.246 42.8869 148.212 42.943 148.189C42.999 148.165 43.0591 148.153 43.1197 148.153C43.1804 148.153 43.2404 148.165 43.2964 148.189C43.3525 148.212 43.4034 148.246 43.4462 148.289ZM46.812 150C46.812 151.187 46.4601 152.347 45.8008 153.333C45.1415 154.32 44.2045 155.089 43.1081 155.543C42.0118 155.997 40.8054 156.116 39.6415 155.885C38.4776 155.653 37.4085 155.082 36.5694 154.243C35.7303 153.404 35.1588 152.334 34.9273 151.171C34.6958 150.007 34.8146 148.8 35.2687 147.704C35.7229 146.608 36.4919 145.67 37.4786 145.011C38.4653 144.352 39.6253 144 40.812 144C42.4028 144.002 43.9279 144.634 45.0528 145.759C46.1777 146.884 46.8103 148.409 46.812 150ZM45.8889 150C45.8889 148.996 45.5912 148.014 45.0333 147.179C44.4755 146.345 43.6826 145.694 42.7549 145.31C41.8272 144.925 40.8064 144.825 39.8216 145.021C38.8367 145.217 37.9321 145.7 37.2221 146.41C36.5121 147.12 36.0285 148.025 35.8326 149.01C35.6367 149.994 35.7373 151.015 36.1215 151.943C36.5058 152.871 37.1565 153.663 37.9914 154.221C38.8263 154.779 39.8079 155.077 40.812 155.077C42.158 155.075 43.4485 154.54 44.4003 153.588C45.352 152.636 45.8874 151.346 45.8889 150Z" fill="#5AB9EA"/>
<path d="M63.269 145.965V155H61.787V145.965H63.269ZM68.8287 147.72C69.3921 147.72 69.8947 147.837 70.3367 148.071C70.7874 148.305 71.1384 148.652 71.3897 149.111C71.6411 149.57 71.7667 150.125 71.7667 150.775V155H70.2977V150.996C70.2977 150.355 70.1374 149.865 69.8167 149.527C69.4961 149.18 69.0584 149.007 68.5037 149.007C67.9491 149.007 67.5071 149.18 67.1777 149.527C66.8571 149.865 66.6967 150.355 66.6967 150.996V155H65.2147V147.837H66.6967V148.656C66.9394 148.361 67.2471 148.132 67.6197 147.967C68.0011 147.802 68.4041 147.72 68.8287 147.72ZM76.2311 155.117C75.6765 155.117 75.1781 155.017 74.7361 154.818C74.2941 154.61 73.9431 154.333 73.6831 153.986C73.4231 153.631 73.2845 153.236 73.2671 152.803H74.8011C74.8271 153.132 74.9701 153.405 75.2301 153.622C75.4988 153.839 75.8325 153.947 76.2311 153.947C76.6471 153.947 76.9678 153.865 77.1931 153.7C77.4271 153.527 77.5441 153.297 77.5441 153.011C77.5441 152.751 77.4141 152.552 77.1541 152.413C76.8941 152.274 76.4911 152.136 75.9451 151.997C75.4165 151.85 74.9831 151.711 74.6451 151.581C74.3158 151.442 74.0298 151.234 73.7871 150.957C73.5445 150.671 73.4231 150.303 73.4231 149.852C73.4231 149.462 73.5315 149.107 73.7481 148.786C73.9648 148.457 74.2768 148.197 74.6841 148.006C75.1001 147.815 75.5855 147.72 76.1401 147.72C76.9548 147.72 77.6091 147.928 78.1031 148.344C78.6058 148.751 78.8745 149.31 78.9091 150.021H77.4271C77.4011 149.674 77.2711 149.401 77.0371 149.202C76.8031 148.994 76.4868 148.89 76.0881 148.89C75.6981 148.89 75.3991 148.972 75.1911 149.137C74.9831 149.293 74.8791 149.505 74.8791 149.774C74.8791 149.965 74.9485 150.125 75.0871 150.255C75.2258 150.385 75.3991 150.489 75.6071 150.567C75.8151 150.636 76.1098 150.723 76.4911 150.827C77.0111 150.966 77.4358 151.104 77.7651 151.243C78.0945 151.382 78.3761 151.594 78.6101 151.88C78.8441 152.157 78.9611 152.521 78.9611 152.972C78.9611 153.379 78.8528 153.748 78.6361 154.077C78.4195 154.398 78.1031 154.653 77.6871 154.844C77.2798 155.026 76.7945 155.117 76.2311 155.117ZM82.3305 149.046V153.011C82.3305 153.28 82.3911 153.475 82.5125 153.596C82.6425 153.709 82.8591 153.765 83.1625 153.765H84.0725V155H82.9025C82.2351 155 81.7238 154.844 81.3685 154.532C81.0131 154.22 80.8355 153.713 80.8355 153.011V149.046H79.9905V147.837H80.8355V146.056H82.3305V147.837H84.0725V149.046H82.3305ZM84.9444 151.386C84.9444 150.667 85.0917 150.03 85.3864 149.475C85.6897 148.92 86.097 148.491 86.6084 148.188C87.1284 147.876 87.7004 147.72 88.3244 147.72C88.8877 147.72 89.3774 147.833 89.7934 148.058C90.218 148.275 90.556 148.548 90.8074 148.877V147.837H92.3024V155H90.8074V153.934C90.556 154.272 90.2137 154.554 89.7804 154.779C89.347 155.004 88.853 155.117 88.2984 155.117C87.683 155.117 87.1197 154.961 86.6084 154.649C86.097 154.328 85.6897 153.886 85.3864 153.323C85.0917 152.751 84.9444 152.105 84.9444 151.386ZM90.8074 151.412C90.8074 150.918 90.7034 150.489 90.4954 150.125C90.296 149.761 90.0317 149.484 89.7024 149.293C89.373 149.102 89.0177 149.007 88.6364 149.007C88.255 149.007 87.8997 149.102 87.5704 149.293C87.241 149.475 86.9724 149.748 86.7644 150.112C86.565 150.467 86.4654 150.892 86.4654 151.386C86.4654 151.88 86.565 152.313 86.7644 152.686C86.9724 153.059 87.241 153.345 87.5704 153.544C87.9084 153.735 88.2637 153.83 88.6364 153.83C89.0177 153.83 89.373 153.735 89.7024 153.544C90.0317 153.353 90.296 153.076 90.4954 152.712C90.7034 152.339 90.8074 151.906 90.8074 151.412ZM97.8629 147.72C98.4263 147.72 98.9289 147.837 99.3709 148.071C99.8216 148.305 100.173 148.652 100.424 149.111C100.675 149.57 100.801 150.125 100.801 150.775V155H99.3319V150.996C99.3319 150.355 99.1716 149.865 98.8509 149.527C98.5303 149.18 98.0926 149.007 97.5379 149.007C96.9833 149.007 96.5413 149.18 96.2119 149.527C95.8913 149.865 95.7309 150.355 95.7309 150.996V155H94.2489V147.837H95.7309V148.656C95.9736 148.361 96.2813 148.132 96.6539 147.967C97.0353 147.802 97.4383 147.72 97.8629 147.72ZM104.42 149.046V153.011C104.42 153.28 104.481 153.475 104.602 153.596C104.732 153.709 104.949 153.765 105.252 153.765H106.162V155H104.992C104.325 155 103.814 154.844 103.458 154.532C103.103 154.22 102.925 153.713 102.925 153.011V149.046H102.08V147.837H102.925V146.056H104.42V147.837H106.162V149.046H104.42ZM114.403 155.091C113.796 155.091 113.25 154.987 112.765 154.779C112.279 154.562 111.898 154.259 111.621 153.869C111.343 153.479 111.205 153.024 111.205 152.504H112.791C112.825 152.911 112.977 153.245 113.246 153.505C113.523 153.765 113.909 153.895 114.403 153.895C114.914 153.895 115.313 153.769 115.599 153.518C115.885 153.258 116.028 152.924 116.028 152.517C116.028 152.214 115.937 151.967 115.755 151.776C115.581 151.585 115.36 151.438 115.092 151.334C114.832 151.23 114.468 151.117 114 150.996C113.41 150.84 112.929 150.684 112.557 150.528C112.193 150.363 111.881 150.112 111.621 149.774C111.361 149.436 111.231 148.985 111.231 148.422C111.231 147.902 111.361 147.447 111.621 147.057C111.881 146.667 112.245 146.368 112.713 146.16C113.181 145.952 113.722 145.848 114.338 145.848C115.213 145.848 115.928 146.069 116.483 146.511C117.046 146.944 117.358 147.542 117.419 148.305H115.781C115.755 147.95 115.599 147.655 115.313 147.421C115.035 147.178 114.658 147.057 114.182 147.057C113.748 147.057 113.397 147.17 113.129 147.395C112.869 147.612 112.739 147.937 112.739 148.37C112.739 148.647 112.821 148.877 112.986 149.059C113.159 149.232 113.376 149.371 113.636 149.475C113.896 149.579 114.251 149.692 114.702 149.813C115.3 149.978 115.785 150.142 116.158 150.307C116.539 150.472 116.86 150.727 117.12 151.074C117.388 151.412 117.523 151.867 117.523 152.439C117.523 152.898 117.397 153.332 117.146 153.739C116.903 154.146 116.543 154.476 116.067 154.727C115.599 154.97 115.044 155.091 114.403 155.091ZM125.836 151.217C125.836 151.468 125.819 151.702 125.784 151.919H120.298C120.342 152.517 120.554 152.994 120.935 153.349C121.317 153.696 121.789 153.869 122.352 153.869C123.15 153.869 123.713 153.535 124.042 152.868H125.641C125.425 153.527 125.03 154.068 124.458 154.493C123.895 154.909 123.193 155.117 122.352 155.117C121.668 155.117 121.052 154.965 120.506 154.662C119.969 154.35 119.544 153.917 119.232 153.362C118.929 152.799 118.777 152.149 118.777 151.412C118.777 150.675 118.925 150.03 119.219 149.475C119.523 148.912 119.943 148.478 120.48 148.175C121.026 147.872 121.65 147.72 122.352 147.72C123.028 147.72 123.631 147.867 124.159 148.162C124.688 148.457 125.1 148.868 125.394 149.397C125.689 149.926 125.836 150.532 125.836 151.217ZM124.289 150.853C124.281 150.272 124.086 149.813 123.704 149.475C123.332 149.137 122.859 148.968 122.287 148.968C121.767 148.968 121.321 149.137 120.948 149.475C120.584 149.813 120.372 150.272 120.311 150.853H124.289ZM129.024 149.046V153.011C129.024 153.28 129.084 153.475 129.206 153.596C129.336 153.709 129.552 153.765 129.856 153.765H130.766V155H129.596C128.928 155 128.417 154.844 128.062 154.532C127.706 154.22 127.529 153.713 127.529 153.011V149.046H126.684V147.837H127.529V146.056H129.024V147.837H130.766V149.046H129.024ZM133.861 149.046V153.011C133.861 153.28 133.921 153.475 134.043 153.596C134.173 153.709 134.389 153.765 134.693 153.765H135.603V155H134.433C133.765 155 133.254 154.844 132.899 154.532C132.543 154.22 132.366 153.713 132.366 153.011V149.046H131.521V147.837H132.366V146.056H133.861V147.837H135.603V149.046H133.861ZM138.451 145.38V155H136.969V145.38H138.451ZM146.961 151.217C146.961 151.468 146.944 151.702 146.909 151.919H141.423C141.467 152.517 141.679 152.994 142.06 153.349C142.442 153.696 142.914 153.869 143.477 153.869C144.275 153.869 144.838 153.535 145.167 152.868H146.766C146.55 153.527 146.155 154.068 145.583 154.493C145.02 154.909 144.318 155.117 143.477 155.117C142.793 155.117 142.177 154.965 141.631 154.662C141.094 154.35 140.669 153.917 140.357 153.362C140.054 152.799 139.902 152.149 139.902 151.412C139.902 150.675 140.05 150.03 140.344 149.475C140.648 148.912 141.068 148.478 141.605 148.175C142.151 147.872 142.775 147.72 143.477 147.72C144.153 147.72 144.756 147.867 145.284 148.162C145.813 148.457 146.225 148.868 146.519 149.397C146.814 149.926 146.961 150.532 146.961 151.217ZM145.414 150.853C145.406 150.272 145.211 149.813 144.829 149.475C144.457 149.137 143.984 148.968 143.412 148.968C142.892 148.968 142.446 149.137 142.073 149.475C141.709 149.813 141.497 150.272 141.436 150.853H145.414ZM157.091 147.72C157.654 147.72 158.157 147.837 158.599 148.071C159.049 148.305 159.4 148.652 159.652 149.111C159.912 149.57 160.042 150.125 160.042 150.775V155H158.573V150.996C158.573 150.355 158.412 149.865 158.092 149.527C157.771 149.18 157.333 149.007 156.779 149.007C156.224 149.007 155.782 149.18 155.453 149.527C155.132 149.865 154.972 150.355 154.972 150.996V155H153.503V150.996C153.503 150.355 153.342 149.865 153.022 149.527C152.701 149.18 152.263 149.007 151.709 149.007C151.154 149.007 150.712 149.18 150.383 149.527C150.062 149.865 149.902 150.355 149.902 150.996V155H148.42V147.837H149.902V148.656C150.144 148.361 150.452 148.132 150.825 147.967C151.197 147.802 151.596 147.72 152.021 147.72C152.593 147.72 153.104 147.841 153.555 148.084C154.005 148.327 154.352 148.678 154.595 149.137C154.811 148.704 155.149 148.361 155.609 148.11C156.068 147.85 156.562 147.72 157.091 147.72ZM168.493 151.217C168.493 151.468 168.475 151.702 168.441 151.919H162.955C162.998 152.517 163.21 152.994 163.592 153.349C163.973 153.696 164.445 153.869 165.009 153.869C165.806 153.869 166.369 153.535 166.699 152.868H168.298C168.081 153.527 167.687 154.068 167.115 154.493C166.551 154.909 165.849 155.117 165.009 155.117C164.324 155.117 163.709 154.965 163.163 154.662C162.625 154.35 162.201 153.917 161.889 153.362C161.585 152.799 161.434 152.149 161.434 151.412C161.434 150.675 161.581 150.03 161.876 149.475C162.179 148.912 162.599 148.478 163.137 148.175C163.683 147.872 164.307 147.72 165.009 147.72C165.685 147.72 166.287 147.867 166.816 148.162C167.344 148.457 167.756 148.868 168.051 149.397C168.345 149.926 168.493 150.532 168.493 151.217ZM166.946 150.853C166.937 150.272 166.742 149.813 166.361 149.475C165.988 149.137 165.516 148.968 164.944 148.968C164.424 148.968 163.977 149.137 163.605 149.475C163.241 149.813 163.028 150.272 162.968 150.853H166.946ZM173.565 147.72C174.128 147.72 174.631 147.837 175.073 148.071C175.524 148.305 175.875 148.652 176.126 149.111C176.377 149.57 176.503 150.125 176.503 150.775V155H175.034V150.996C175.034 150.355 174.874 149.865 174.553 149.527C174.232 149.18 173.795 149.007 173.24 149.007C172.685 149.007 172.243 149.18 171.914 149.527C171.593 149.865 171.433 150.355 171.433 150.996V155H169.951V147.837H171.433V148.656C171.676 148.361 171.983 148.132 172.356 147.967C172.737 147.802 173.14 147.72 173.565 147.72ZM180.122 149.046V153.011C180.122 153.28 180.183 153.475 180.304 153.596C180.434 153.709 180.651 153.765 180.954 153.765H181.864V155H180.694C180.027 155 179.516 154.844 179.16 154.532C178.805 154.22 178.627 153.713 178.627 153.011V149.046H177.782V147.837H178.627V146.056H180.122V147.837H181.864V149.046H180.122ZM185.804 155.117C185.25 155.117 184.751 155.017 184.309 154.818C183.867 154.61 183.516 154.333 183.256 153.986C182.996 153.631 182.858 153.236 182.84 152.803H184.374C184.4 153.132 184.543 153.405 184.803 153.622C185.072 153.839 185.406 153.947 185.804 153.947C186.22 153.947 186.541 153.865 186.766 153.7C187 153.527 187.117 153.297 187.117 153.011C187.117 152.751 186.987 152.552 186.727 152.413C186.467 152.274 186.064 152.136 185.518 151.997C184.99 151.85 184.556 151.711 184.218 151.581C183.889 151.442 183.603 151.234 183.36 150.957C183.118 150.671 182.996 150.303 182.996 149.852C182.996 149.462 183.105 149.107 183.321 148.786C183.538 148.457 183.85 148.197 184.257 148.006C184.673 147.815 185.159 147.72 185.713 147.72C186.528 147.72 187.182 147.928 187.676 148.344C188.179 148.751 188.448 149.31 188.482 150.021H187C186.974 149.674 186.844 149.401 186.61 149.202C186.376 148.994 186.06 148.89 185.661 148.89C185.271 148.89 184.972 148.972 184.764 149.137C184.556 149.293 184.452 149.505 184.452 149.774C184.452 149.965 184.522 150.125 184.66 150.255C184.799 150.385 184.972 150.489 185.18 150.567C185.388 150.636 185.683 150.723 186.064 150.827C186.584 150.966 187.009 151.104 187.338 151.243C187.668 151.382 187.949 151.594 188.183 151.88C188.417 152.157 188.534 152.521 188.534 152.972C188.534 153.379 188.426 153.748 188.209 154.077C187.993 154.398 187.676 154.653 187.26 154.844C186.853 155.026 186.368 155.117 185.804 155.117Z" fill="#E2E2E2"/>
</g>
<g filter="url(#filter4_d_123_831)">
<rect x="224.812" y="32" width="200" height="48" rx="8" fill="black" fill-opacity="0.2" shape-rendering="crispEdges"/>
<rect x="236.812" y="44" width="24" height="24" rx="12" fill="#5AB9EA" fill-opacity="0.1"/>
<path d="M250.985 53.8274C251.028 53.8703 251.062 53.9212 251.085 53.9772C251.108 54.0332 251.12 54.0933 251.12 54.1539C251.12 54.2146 251.108 54.2746 251.085 54.3307C251.062 54.3867 251.028 54.4376 250.985 54.4805L247.292 58.1727C247.25 58.2155 247.199 58.2495 247.143 58.2728C247.087 58.296 247.027 58.3079 246.966 58.3079C246.905 58.3079 246.845 58.296 246.789 58.2728C246.733 58.2495 246.682 58.2155 246.639 58.1727C246.596 58.1298 246.562 58.0789 246.539 58.0228C246.516 57.9668 246.504 57.9068 246.504 57.8461C246.504 57.7855 246.516 57.7254 246.539 57.6694C246.562 57.6134 246.596 57.5625 246.639 57.5196L250.332 53.8274C250.374 53.7845 250.425 53.7505 250.481 53.7272C250.537 53.704 250.597 53.6921 250.658 53.6921C250.719 53.6921 250.779 53.704 250.835 53.7272C250.891 53.7505 250.942 53.7845 250.985 53.8274ZM253.866 50.9464C253.566 50.6463 253.209 50.4083 252.818 50.246C252.426 50.0836 252.005 50 251.581 50C251.157 50 250.737 50.0836 250.345 50.246C249.953 50.4083 249.597 50.6463 249.297 50.9464L247.562 52.68C247.476 52.7666 247.427 52.884 247.427 53.0065C247.427 53.129 247.476 53.2464 247.562 53.333C247.649 53.4196 247.766 53.4683 247.889 53.4683C248.011 53.4683 248.129 53.4196 248.215 53.333L249.95 51.6023C250.384 51.1775 250.968 50.9411 251.576 50.9445C252.183 50.9478 252.765 51.1906 253.195 51.6202C253.624 52.0497 253.867 52.6314 253.871 53.2389C253.874 53.8465 253.638 54.4308 253.213 54.8653L251.478 56.5994C251.392 56.686 251.343 56.8033 251.343 56.9258C251.343 57.0482 251.392 57.1656 251.478 57.2522C251.565 57.3388 251.682 57.3875 251.804 57.3875C251.927 57.3876 252.044 57.339 252.131 57.2525L253.866 55.5154C254.166 55.2154 254.404 54.8593 254.566 54.4673C254.728 54.0753 254.812 53.6552 254.812 53.2309C254.812 52.8066 254.728 52.3865 254.566 51.9945C254.404 51.6025 254.166 51.2464 253.866 50.9464ZM249.408 58.6665L247.674 60.4007C247.461 60.6189 247.206 60.7926 246.925 60.9117C246.644 61.0308 246.342 61.093 246.037 61.0947C245.732 61.0964 245.43 61.0375 245.147 60.9215C244.865 60.8055 244.609 60.6346 244.393 60.4187C244.177 60.2029 244.006 59.9464 243.89 59.6641C243.774 59.3818 243.715 59.0792 243.717 58.774C243.719 58.4688 243.781 58.167 243.9 57.886C244.019 57.605 244.193 57.3505 244.411 57.1371L246.145 55.4035C246.232 55.3169 246.28 55.1995 246.28 55.077C246.28 54.9545 246.232 54.8371 246.145 54.7505C246.058 54.6639 245.941 54.6152 245.818 54.6152C245.696 54.6152 245.578 54.6639 245.492 54.7505L243.758 56.4846C243.152 57.0905 242.812 57.9123 242.812 58.7692C242.812 59.626 243.152 60.4478 243.758 61.0537C244.364 61.6596 245.186 62 246.043 62C246.9 62 247.721 61.6596 248.327 61.0537L250.062 59.319C250.148 59.2324 250.197 59.1149 250.197 58.9925C250.197 58.8701 250.148 58.7527 250.061 58.6662C249.975 58.5797 249.857 58.5311 249.735 58.5311C249.612 58.5312 249.495 58.5799 249.408 58.6665Z" fill="#5AB9EA"/>
<path d="M274.044 51L272.124 47.664H271.08V51H269.712V42.66H272.592C273.232 42.66 273.772 42.772 274.212 42.996C274.66 43.22 274.992 43.52 275.208 43.896C275.432 44.272 275.544 44.692 275.544 45.156C275.544 45.7 275.384 46.196 275.064 46.644C274.752 47.084 274.268 47.384 273.612 47.544L275.676 51H274.044ZM271.08 46.584H272.592C273.104 46.584 273.488 46.456 273.744 46.2C274.008 45.944 274.14 45.596 274.14 45.156C274.14 44.708 274.012 44.36 273.756 44.112C273.5 43.856 273.112 43.728 272.592 43.728H271.08V46.584ZM283.354 47.508C283.354 47.74 283.338 47.956 283.306 48.156H278.242C278.282 48.708 278.478 49.148 278.83 49.476C279.182 49.796 279.618 49.956 280.138 49.956C280.874 49.956 281.394 49.648 281.698 49.032H283.174C282.974 49.64 282.61 50.14 282.082 50.532C281.562 50.916 280.914 51.108 280.138 51.108C279.506 51.108 278.938 50.968 278.434 50.688C277.938 50.4 277.546 50 277.258 49.488C276.978 48.968 276.838 48.368 276.838 47.688C276.838 47.008 276.974 46.412 277.246 45.9C277.526 45.38 277.914 44.98 278.41 44.7C278.914 44.42 279.49 44.28 280.138 44.28C280.762 44.28 281.318 44.416 281.806 44.688C282.294 44.96 282.674 45.34 282.946 45.828C283.218 46.316 283.354 46.876 283.354 47.508ZM281.926 47.172C281.918 46.636 281.738 46.212 281.386 45.9C281.042 45.588 280.606 45.432 280.078 45.432C279.598 45.432 279.186 45.588 278.842 45.9C278.506 46.212 278.31 46.636 278.254 47.172H281.926ZM284.244 47.688C284.244 47.008 284.38 46.412 284.652 45.9C284.932 45.38 285.316 44.98 285.804 44.7C286.292 44.42 286.852 44.28 287.484 44.28C288.284 44.28 288.944 44.472 289.464 44.856C289.992 45.232 290.348 45.772 290.532 46.476H289.056C288.936 46.148 288.744 45.892 288.48 45.708C288.216 45.524 287.884 45.432 287.484 45.432C286.924 45.432 286.476 45.632 286.14 46.032C285.812 46.424 285.648 46.976 285.648 47.688C285.648 48.4 285.812 48.956 286.14 49.356C286.476 49.756 286.924 49.956 287.484 49.956C288.276 49.956 288.8 49.608 289.056 48.912H290.532C290.34 49.584 289.98 50.12 289.452 50.52C288.924 50.912 288.268 51.108 287.484 51.108C286.852 51.108 286.292 50.968 285.804 50.688C285.316 50.4 284.932 50 284.652 49.488C284.38 48.968 284.244 48.368 284.244 47.688ZM297.956 47.508C297.956 47.74 297.94 47.956 297.908 48.156H292.844C292.884 48.708 293.08 49.148 293.432 49.476C293.784 49.796 294.22 49.956 294.74 49.956C295.476 49.956 295.996 49.648 296.3 49.032H297.776C297.576 49.64 297.212 50.14 296.684 50.532C296.164 50.916 295.516 51.108 294.74 51.108C294.108 51.108 293.54 50.968 293.036 50.688C292.54 50.4 292.148 50 291.86 49.488C291.58 48.968 291.44 48.368 291.44 47.688C291.44 47.008 291.576 46.412 291.848 45.9C292.128 45.38 292.516 44.98 293.012 44.7C293.516 44.42 294.092 44.28 294.74 44.28C295.364 44.28 295.92 44.416 296.408 44.688C296.896 44.96 297.276 45.34 297.548 45.828C297.82 46.316 297.956 46.876 297.956 47.508ZM296.528 47.172C296.52 46.636 296.34 46.212 295.988 45.9C295.644 45.588 295.208 45.432 294.68 45.432C294.2 45.432 293.788 45.588 293.444 45.9C293.108 46.212 292.912 46.636 292.856 47.172H296.528ZM299.998 43.512C299.75 43.512 299.542 43.428 299.374 43.26C299.206 43.092 299.122 42.884 299.122 42.636C299.122 42.388 299.206 42.18 299.374 42.012C299.542 41.844 299.75 41.76 299.998 41.76C300.238 41.76 300.442 41.844 300.61 42.012C300.778 42.18 300.862 42.388 300.862 42.636C300.862 42.884 300.778 43.092 300.61 43.26C300.442 43.428 300.238 43.512 299.998 43.512ZM300.67 44.388V51H299.302V44.388H300.67ZM305.022 49.776L306.894 44.388H308.37L305.85 51H304.194L301.686 44.388H303.15L305.022 49.776ZM315.44 47.508C315.44 47.74 315.424 47.956 315.392 48.156H310.328C310.368 48.708 310.564 49.148 310.916 49.476C311.268 49.796 311.704 49.956 312.224 49.956C312.96 49.956 313.48 49.648 313.784 49.032H315.26C315.06 49.64 314.696 50.14 314.168 50.532C313.648 50.916 313 51.108 312.224 51.108C311.592 51.108 311.024 50.968 310.52 50.688C310.024 50.4 309.632 50 309.344 49.488C309.064 48.968 308.924 48.368 308.924 47.688C308.924 47.008 309.06 46.412 309.332 45.9C309.612 45.38 310 44.98 310.496 44.7C311 44.42 311.576 44.28 312.224 44.28C312.848 44.28 313.404 44.416 313.892 44.688C314.38 44.96 314.76 45.34 315.032 45.828C315.304 46.316 315.44 46.876 315.44 47.508ZM314.012 47.172C314.004 46.636 313.824 46.212 313.472 45.9C313.128 45.588 312.692 45.432 312.164 45.432C311.684 45.432 311.272 45.588 310.928 45.9C310.592 46.212 310.396 46.636 310.34 47.172H314.012ZM326.564 42.66L323.804 47.976V51H322.436V47.976L319.664 42.66H321.188L323.108 46.728L325.028 42.66H326.564ZM330.518 51.108C329.894 51.108 329.33 50.968 328.826 50.688C328.322 50.4 327.926 50 327.638 49.488C327.35 48.968 327.206 48.368 327.206 47.688C327.206 47.016 327.354 46.42 327.65 45.9C327.946 45.38 328.35 44.98 328.862 44.7C329.374 44.42 329.946 44.28 330.578 44.28C331.21 44.28 331.782 44.42 332.294 44.7C332.806 44.98 333.21 45.38 333.506 45.9C333.802 46.42 333.95 47.016 333.95 47.688C333.95 48.36 333.798 48.956 333.494 49.476C333.19 49.996 332.774 50.4 332.246 50.688C331.726 50.968 331.15 51.108 330.518 51.108ZM330.518 49.956C330.87 49.956 331.198 49.868 331.502 49.692C331.814 49.516 332.066 49.26 332.258 48.924C332.45 48.58 332.546 48.168 332.546 47.688C332.546 47.208 332.454 46.8 332.27 46.464C332.086 46.12 331.842 45.864 331.538 45.696C331.234 45.52 330.906 45.432 330.554 45.432C330.202 45.432 329.878 45.52 329.582 45.696C329.286 45.864 329.046 46.12 328.862 46.464C328.686 46.8 328.598 47.208 328.598 47.688C328.598 48.168 328.682 48.58 328.85 48.924C329.026 49.268 329.258 49.528 329.546 49.704C329.842 49.872 330.166 49.956 330.518 49.956ZM341.29 44.388V51H339.922V50.22C339.706 50.492 339.422 50.708 339.07 50.868C338.726 51.02 338.358 51.096 337.966 51.096C337.446 51.096 336.978 50.988 336.562 50.772C336.154 50.556 335.83 50.236 335.59 49.812C335.358 49.388 335.242 48.876 335.242 48.276V44.388H336.598V48.072C336.598 48.664 336.746 49.12 337.042 49.44C337.338 49.752 337.742 49.908 338.254 49.908C338.766 49.908 339.17 49.752 339.466 49.44C339.77 49.12 339.922 48.664 339.922 48.072V44.388H341.29ZM344.463 45.54C344.663 45.14 344.927 44.832 345.255 44.616C345.591 44.392 345.987 44.28 346.443 44.28V45.696H346.095C345.559 45.696 345.151 45.832 344.871 46.104C344.599 46.376 344.463 46.848 344.463 47.52V51H343.095V44.388H344.463V45.54ZM357.13 45.144C357.13 45.568 357.03 45.968 356.83 46.344C356.63 46.72 356.31 47.028 355.87 47.268C355.43 47.5 354.866 47.616 354.178 47.616H352.666V51H351.298V42.66H354.178C354.818 42.66 355.358 42.772 355.798 42.996C356.246 43.212 356.578 43.508 356.794 43.884C357.018 44.26 357.13 44.68 357.13 45.144ZM354.178 46.548C354.698 46.548 355.086 46.424 355.342 46.176C355.598 45.928 355.726 45.584 355.726 45.144C355.726 44.696 355.598 44.348 355.342 44.1C355.086 43.852 354.698 43.728 354.178 43.728H352.666V46.548H354.178ZM357.979 47.664C357.979 47 358.115 46.412 358.387 45.9C358.667 45.388 359.043 44.992 359.515 44.712C359.995 44.424 360.523 44.28 361.099 44.28C361.619 44.28 362.071 44.384 362.455 44.592C362.847 44.792 363.159 45.044 363.391 45.348V44.388H364.771V51H363.391V50.016C363.159 50.328 362.843 50.588 362.443 50.796C362.043 51.004 361.587 51.108 361.075 51.108C360.507 51.108 359.987 50.964 359.515 50.676C359.043 50.38 358.667 49.972 358.387 49.452C358.115 48.924 357.979 48.328 357.979 47.664ZM363.391 47.688C363.391 47.232 363.295 46.836 363.103 46.5C362.919 46.164 362.675 45.908 362.371 45.732C362.067 45.556 361.739 45.468 361.387 45.468C361.035 45.468 360.707 45.556 360.403 45.732C360.099 45.9 359.851 46.152 359.659 46.488C359.475 46.816 359.383 47.208 359.383 47.664C359.383 48.12 359.475 48.52 359.659 48.864C359.851 49.208 360.099 49.472 360.403 49.656C360.715 49.832 361.043 49.92 361.387 49.92C361.739 49.92 362.067 49.832 362.371 49.656C362.675 49.48 362.919 49.224 363.103 48.888C363.295 48.544 363.391 48.144 363.391 47.688ZM367.311 44.388L369.171 49.428L371.103 44.388H372.519L368.463 54.108H367.047L368.391 50.892L365.787 44.388H367.311ZM381.556 44.28C382.076 44.28 382.54 44.388 382.948 44.604C383.364 44.82 383.688 45.14 383.92 45.564C384.16 45.988 384.28 46.5 384.28 47.1V51H382.924V47.304C382.924 46.712 382.776 46.26 382.48 45.948C382.184 45.628 381.78 45.468 381.268 45.468C380.756 45.468 380.348 45.628 380.044 45.948C379.748 46.26 379.6 46.712 379.6 47.304V51H378.244V47.304C378.244 46.712 378.096 46.26 377.8 45.948C377.504 45.628 377.1 45.468 376.588 45.468C376.076 45.468 375.668 45.628 375.364 45.948C375.068 46.26 374.92 46.712 374.92 47.304V51H373.552V44.388H374.92V45.144C375.144 44.872 375.428 44.66 375.772 44.508C376.116 44.356 376.484 44.28 376.876 44.28C377.404 44.28 377.876 44.392 378.292 44.616C378.708 44.84 379.028 45.164 379.252 45.588C379.452 45.188 379.764 44.872 380.188 44.64C380.612 44.4 381.068 44.28 381.556 44.28ZM392.081 47.508C392.081 47.74 392.065 47.956 392.033 48.156H386.969C387.009 48.708 387.205 49.148 387.557 49.476C387.909 49.796 388.345 49.956 388.865 49.956C389.601 49.956 390.121 49.648 390.425 49.032H391.901C391.701 49.64 391.337 50.14 390.809 50.532C390.289 50.916 389.641 51.108 388.865 51.108C388.233 51.108 387.665 50.968 387.161 50.688C386.665 50.4 386.273 50 385.985 49.488C385.705 48.968 385.565 48.368 385.565 47.688C385.565 47.008 385.701 46.412 385.973 45.9C386.253 45.38 386.641 44.98 387.137 44.7C387.641 44.42 388.217 44.28 388.865 44.28C389.489 44.28 390.045 44.416 390.533 44.688C391.021 44.96 391.401 45.34 391.673 45.828C391.945 46.316 392.081 46.876 392.081 47.508ZM390.653 47.172C390.645 46.636 390.465 46.212 390.113 45.9C389.769 45.588 389.333 45.432 388.805 45.432C388.325 45.432 387.913 45.588 387.569 45.9C387.233 46.212 387.037 46.636 386.981 47.172H390.653ZM396.763 44.28C397.283 44.28 397.747 44.388 398.155 44.604C398.571 44.82 398.895 45.14 399.127 45.564C399.359 45.988 399.475 46.5 399.475 47.1V51H398.119V47.304C398.119 46.712 397.971 46.26 397.675 45.948C397.379 45.628 396.975 45.468 396.463 45.468C395.951 45.468 395.543 45.628 395.239 45.948C394.943 46.26 394.795 46.712 394.795 47.304V51H393.427V44.388H394.795V45.144C395.019 44.872 395.303 44.66 395.647 44.508C395.999 44.356 396.371 44.28 396.763 44.28ZM402.816 45.504V49.164C402.816 49.412 402.872 49.592 402.984 49.704C403.104 49.808 403.304 49.86 403.584 49.86H404.424V51H403.344C402.728 51 402.256 50.856 401.928 50.568C401.6 50.28 401.436 49.812 401.436 49.164V45.504H400.656V44.388H401.436V42.744H402.816V44.388H404.424V45.504H402.816ZM408.061 51.108C407.549 51.108 407.089 51.016 406.681 50.832C406.273 50.64 405.949 50.384 405.709 50.064C405.469 49.736 405.341 49.372 405.325 48.972H406.741C406.765 49.276 406.897 49.528 407.137 49.728C407.385 49.928 407.693 50.028 408.061 50.028C408.445 50.028 408.741 49.952 408.949 49.8C409.165 49.64 409.273 49.428 409.273 49.164C409.273 48.924 409.153 48.74 408.913 48.612C408.673 48.484 408.301 48.356 407.797 48.228C407.309 48.092 406.909 47.964 406.597 47.844C406.293 47.716 406.029 47.524 405.805 47.268C405.581 47.004 405.469 46.664 405.469 46.248C405.469 45.888 405.569 45.56 405.769 45.264C405.969 44.96 406.257 44.72 406.633 44.544C407.017 44.368 407.465 44.28 407.977 44.28C408.729 44.28 409.333 44.472 409.789 44.856C410.253 45.232 410.501 45.748 410.533 46.404H409.165C409.141 46.084 409.021 45.832 408.805 45.648C408.589 45.456 408.297 45.36 407.929 45.36C407.569 45.36 407.293 45.436 407.101 45.588C406.909 45.732 406.813 45.928 406.813 46.176C406.813 46.352 406.877 46.5 407.005 46.62C407.133 46.74 407.293 46.836 407.485 46.908C407.677 46.972 407.949 47.052 408.301 47.148C408.781 47.276 409.173 47.404 409.477 47.532C409.781 47.66 410.041 47.856 410.257 48.12C410.473 48.376 410.581 48.712 410.581 49.128C410.581 49.504 410.481 49.844 410.281 50.148C410.081 50.444 409.789 50.68 409.405 50.856C409.029 51.024 408.581 51.108 408.061 51.108ZM272.268 67.776L274.14 62.388H275.616L273.096 69H271.44L268.932 62.388H270.396L272.268 67.776ZM277.322 61.512C277.074 61.512 276.866 61.428 276.698 61.26C276.53 61.092 276.446 60.884 276.446 60.636C276.446 60.388 276.53 60.18 276.698 60.012C276.866 59.844 277.074 59.76 277.322 59.76C277.562 59.76 277.766 59.844 277.934 60.012C278.102 60.18 278.186 60.388 278.186 60.636C278.186 60.884 278.102 61.092 277.934 61.26C277.766 61.428 277.562 61.512 277.322 61.512ZM277.994 62.388V69H276.626V62.388H277.994ZM279.334 65.664C279.334 65 279.47 64.412 279.742 63.9C280.022 63.388 280.398 62.992 280.87 62.712C281.35 62.424 281.878 62.28 282.454 62.28C282.974 62.28 283.426 62.384 283.81 62.592C284.202 62.792 284.514 63.044 284.746 63.348V62.388H286.126V69H284.746V68.016C284.514 68.328 284.198 68.588 283.798 68.796C283.398 69.004 282.942 69.108 282.43 69.108C281.862 69.108 281.342 68.964 280.87 68.676C280.398 68.38 280.022 67.972 279.742 67.452C279.47 66.924 279.334 66.328 279.334 65.664ZM284.746 65.688C284.746 65.232 284.65 64.836 284.458 64.5C284.274 64.164 284.03 63.908 283.726 63.732C283.422 63.556 283.094 63.468 282.742 63.468C282.39 63.468 282.062 63.556 281.758 63.732C281.454 63.9 281.206 64.152 281.014 64.488C280.83 64.816 280.738 65.208 280.738 65.664C280.738 66.12 280.83 66.52 281.014 66.864C281.206 67.208 281.454 67.472 281.758 67.656C282.07 67.832 282.398 67.92 282.742 67.92C283.094 67.92 283.422 67.832 283.726 67.656C284.03 67.48 284.274 67.224 284.458 66.888C284.65 66.544 284.746 66.144 284.746 65.688ZM292.889 67.956H295.709V69H291.521V60.66H292.889V67.956ZM297.549 61.512C297.301 61.512 297.093 61.428 296.925 61.26C296.757 61.092 296.673 60.884 296.673 60.636C296.673 60.388 296.757 60.18 296.925 60.012C297.093 59.844 297.301 59.76 297.549 59.76C297.789 59.76 297.993 59.844 298.161 60.012C298.329 60.18 298.413 60.388 298.413 60.636C298.413 60.884 298.329 61.092 298.161 61.26C297.993 61.428 297.789 61.512 297.549 61.512ZM298.221 62.388V69H296.853V62.388H298.221ZM303.353 62.28C303.873 62.28 304.337 62.388 304.745 62.604C305.161 62.82 305.485 63.14 305.717 63.564C305.949 63.988 306.065 64.5 306.065 65.1V69H304.709V65.304C304.709 64.712 304.561 64.26 304.265 63.948C303.969 63.628 303.565 63.468 303.053 63.468C302.541 63.468 302.133 63.628 301.829 63.948C301.533 64.26 301.385 64.712 301.385 65.304V69H300.017V62.388H301.385V63.144C301.609 62.872 301.893 62.66 302.237 62.508C302.589 62.356 302.961 62.28 303.353 62.28ZM310.426 65.7L313.474 69H311.626L309.178 66.156V69H307.81V60.12H309.178V65.28L311.578 62.388H313.474L310.426 65.7ZM316.83 69.108C316.318 69.108 315.858 69.016 315.45 68.832C315.042 68.64 314.718 68.384 314.478 68.064C314.238 67.736 314.11 67.372 314.094 66.972H315.51C315.534 67.276 315.666 67.528 315.906 67.728C316.154 67.928 316.462 68.028 316.83 68.028C317.214 68.028 317.51 67.952 317.718 67.8C317.934 67.64 318.042 67.428 318.042 67.164C318.042 66.924 317.922 66.74 317.682 66.612C317.442 66.484 317.07 66.356 316.566 66.228C316.078 66.092 315.678 65.964 315.366 65.844C315.062 65.716 314.798 65.524 314.574 65.268C314.35 65.004 314.238 64.664 314.238 64.248C314.238 63.888 314.338 63.56 314.538 63.264C314.738 62.96 315.026 62.72 315.402 62.544C315.786 62.368 316.234 62.28 316.746 62.28C317.498 62.28 318.102 62.472 318.558 62.856C319.022 63.232 319.27 63.748 319.302 64.404H317.934C317.91 64.084 317.79 63.832 317.574 63.648C317.358 63.456 317.066 63.36 316.698 63.36C316.338 63.36 316.062 63.436 315.87 63.588C315.678 63.732 315.582 63.928 315.582 64.176C315.582 64.352 315.646 64.5 315.774 64.62C315.902 64.74 316.062 64.836 316.254 64.908C316.446 64.972 316.718 65.052 317.07 65.148C317.55 65.276 317.942 65.404 318.246 65.532C318.55 65.66 318.81 65.856 319.026 66.12C319.242 66.376 319.35 66.712 319.35 67.128C319.35 67.504 319.25 67.844 319.05 68.148C318.85 68.444 318.558 68.68 318.174 68.856C317.798 69.024 317.35 69.108 316.83 69.108Z" fill="#E2E2E2"/>
</g>
<g filter="url(#filter5_d_123_831)">
<rect x="224.812" y="88" width="200" height="36" rx="8" fill="black" fill-opacity="0.2" shape-rendering="crispEdges"/>
<rect x="236.812" y="94" width="24" height="24" rx="12" fill="#5AB9EA" fill-opacity="0.1"/>
<path d="M247.176 100H243.903C243.614 100 243.336 100.115 243.132 100.32C242.927 100.524 242.812 100.802 242.812 101.091V104.364C242.812 104.653 242.927 104.93 243.132 105.135C243.336 105.34 243.614 105.455 243.903 105.455H247.176C247.465 105.455 247.742 105.34 247.947 105.135C248.152 104.93 248.267 104.653 248.267 104.364V101.091C248.267 100.802 248.152 100.524 247.947 100.32C247.742 100.115 247.465 100 247.176 100ZM247.176 104.364H243.903V101.091H247.176V104.364ZM247.176 106.545H243.903C243.614 106.545 243.336 106.66 243.132 106.865C242.927 107.07 242.812 107.347 242.812 107.636V110.909C242.812 111.198 242.927 111.476 243.132 111.68C243.336 111.885 243.614 112 243.903 112H247.176C247.465 112 247.742 111.885 247.947 111.68C248.152 111.476 248.267 111.198 248.267 110.909V107.636C248.267 107.347 248.152 107.07 247.947 106.865C247.742 106.66 247.465 106.545 247.176 106.545ZM247.176 110.909H243.903V107.636H247.176V110.909ZM253.721 100H250.448C250.159 100 249.882 100.115 249.677 100.32C249.472 100.524 249.357 100.802 249.357 101.091V104.364C249.357 104.653 249.472 104.93 249.677 105.135C249.882 105.34 250.159 105.455 250.448 105.455H253.721C254.01 105.455 254.288 105.34 254.492 105.135C254.697 104.93 254.812 104.653 254.812 104.364V101.091C254.812 100.802 254.697 100.524 254.492 100.32C254.288 100.115 254.01 100 253.721 100ZM253.721 104.364H250.448V101.091H253.721V104.364ZM249.357 109.273V107.091C249.357 106.946 249.415 106.808 249.517 106.705C249.62 106.603 249.758 106.545 249.903 106.545C250.048 106.545 250.186 106.603 250.289 106.705C250.391 106.808 250.448 106.946 250.448 107.091V109.273C250.448 109.417 250.391 109.556 250.289 109.658C250.186 109.761 250.048 109.818 249.903 109.818C249.758 109.818 249.62 109.761 249.517 109.658C249.415 109.556 249.357 109.417 249.357 109.273ZM254.812 108.182C254.812 108.326 254.755 108.465 254.652 108.568C254.55 108.67 254.411 108.727 254.267 108.727H252.63V111.455C252.63 111.599 252.573 111.738 252.47 111.84C252.368 111.943 252.229 112 252.085 112H249.903C249.758 112 249.62 111.943 249.517 111.84C249.415 111.738 249.357 111.599 249.357 111.455C249.357 111.31 249.415 111.171 249.517 111.069C249.62 110.967 249.758 110.909 249.903 110.909H251.539V107.091C251.539 106.946 251.597 106.808 251.699 106.705C251.801 106.603 251.94 106.545 252.085 106.545C252.229 106.545 252.368 106.603 252.47 106.705C252.573 106.808 252.63 106.946 252.63 107.091V107.636H254.267C254.411 107.636 254.55 107.694 254.652 107.796C254.755 107.898 254.812 108.037 254.812 108.182ZM254.812 110.364V111.455C254.812 111.599 254.755 111.738 254.652 111.84C254.55 111.943 254.411 112 254.267 112C254.122 112 253.983 111.943 253.881 111.84C253.779 111.738 253.721 111.599 253.721 111.455V110.364C253.721 110.219 253.779 110.08 253.881 109.978C253.983 109.876 254.122 109.818 254.267 109.818C254.411 109.818 254.55 109.876 254.652 109.978C254.755 110.08 254.812 110.219 254.812 110.364Z" fill="#5AB9EA"/>
<path d="M276.781 112.638L275.195 110.922C274.805 111.035 274.376 111.091 273.908 111.091C273.067 111.091 272.292 110.896 271.581 110.506C270.879 110.107 270.32 109.557 269.904 108.855C269.497 108.144 269.293 107.347 269.293 106.463C269.293 105.579 269.497 104.786 269.904 104.084C270.32 103.382 270.879 102.836 271.581 102.446C272.292 102.047 273.067 101.848 273.908 101.848C274.757 101.848 275.533 102.047 276.235 102.446C276.946 102.836 277.505 103.382 277.912 104.084C278.319 104.786 278.523 105.579 278.523 106.463C278.523 107.295 278.341 108.049 277.977 108.725C277.622 109.392 277.128 109.93 276.495 110.337L278.666 112.638H276.781ZM270.814 106.463C270.814 107.113 270.944 107.689 271.204 108.192C271.473 108.686 271.841 109.072 272.309 109.349C272.777 109.618 273.31 109.752 273.908 109.752C274.506 109.752 275.039 109.618 275.507 109.349C275.975 109.072 276.339 108.686 276.599 108.192C276.868 107.689 277.002 107.113 277.002 106.463C277.002 105.813 276.868 105.241 276.599 104.747C276.339 104.253 275.975 103.872 275.507 103.603C275.039 103.334 274.506 103.2 273.908 103.2C273.31 103.2 272.777 103.334 272.309 103.603C271.841 103.872 271.473 104.253 271.204 104.747C270.944 105.241 270.814 105.813 270.814 106.463ZM284.712 111L282.632 107.386H281.501V111H280.019V101.965H283.139C283.833 101.965 284.418 102.086 284.894 102.329C285.38 102.572 285.739 102.897 285.973 103.304C286.216 103.711 286.337 104.166 286.337 104.669C286.337 105.258 286.164 105.796 285.817 106.281C285.479 106.758 284.955 107.083 284.244 107.256L286.48 111H284.712ZM281.501 106.216H283.139C283.694 106.216 284.11 106.077 284.387 105.8C284.673 105.523 284.816 105.146 284.816 104.669C284.816 104.184 284.678 103.807 284.4 103.538C284.123 103.261 283.703 103.122 283.139 103.122H281.501V106.216ZM298.449 104.656C298.449 105.115 298.34 105.549 298.124 105.956C297.907 106.363 297.56 106.697 297.084 106.957C296.607 107.208 295.996 107.334 295.251 107.334H293.613V111H292.131V101.965H295.251C295.944 101.965 296.529 102.086 297.006 102.329C297.491 102.563 297.851 102.884 298.085 103.291C298.327 103.698 298.449 104.153 298.449 104.656ZM295.251 106.177C295.814 106.177 296.234 106.043 296.512 105.774C296.789 105.505 296.928 105.133 296.928 104.656C296.928 104.171 296.789 103.794 296.512 103.525C296.234 103.256 295.814 103.122 295.251 103.122H293.613V106.177H295.251ZM299.368 107.386C299.368 106.667 299.516 106.03 299.81 105.475C300.114 104.92 300.521 104.491 301.032 104.188C301.552 103.876 302.124 103.72 302.748 103.72C303.312 103.72 303.801 103.833 304.217 104.058C304.642 104.275 304.98 104.548 305.231 104.877V103.837H306.726V111H305.231V109.934C304.98 110.272 304.638 110.554 304.204 110.779C303.771 111.004 303.277 111.117 302.722 111.117C302.107 111.117 301.544 110.961 301.032 110.649C300.521 110.328 300.114 109.886 299.81 109.323C299.516 108.751 299.368 108.105 299.368 107.386ZM305.231 107.412C305.231 106.918 305.127 106.489 304.919 106.125C304.72 105.761 304.456 105.484 304.126 105.293C303.797 105.102 303.442 105.007 303.06 105.007C302.679 105.007 302.324 105.102 301.994 105.293C301.665 105.475 301.396 105.748 301.188 106.112C300.989 106.467 300.889 106.892 300.889 107.386C300.889 107.88 300.989 108.313 301.188 108.686C301.396 109.059 301.665 109.345 301.994 109.544C302.332 109.735 302.688 109.83 303.06 109.83C303.442 109.83 303.797 109.735 304.126 109.544C304.456 109.353 304.72 109.076 304.919 108.712C305.127 108.339 305.231 107.906 305.231 107.412ZM309.479 103.837L311.494 109.297L313.587 103.837H315.121L310.727 114.367H309.193L310.649 110.883L307.828 103.837H309.479ZM324.91 103.72C325.473 103.72 325.976 103.837 326.418 104.071C326.869 104.305 327.22 104.652 327.471 105.111C327.731 105.57 327.861 106.125 327.861 106.775V111H326.392V106.996C326.392 106.355 326.232 105.865 325.911 105.527C325.59 105.18 325.153 105.007 324.598 105.007C324.043 105.007 323.601 105.18 323.272 105.527C322.951 105.865 322.791 106.355 322.791 106.996V111H321.322V106.996C321.322 106.355 321.162 105.865 320.841 105.527C320.52 105.18 320.083 105.007 319.528 105.007C318.973 105.007 318.531 105.18 318.202 105.527C317.881 105.865 317.721 106.355 317.721 106.996V111H316.239V103.837H317.721V104.656C317.964 104.361 318.271 104.132 318.644 103.967C319.017 103.802 319.415 103.72 319.84 103.72C320.412 103.72 320.923 103.841 321.374 104.084C321.825 104.327 322.171 104.678 322.414 105.137C322.631 104.704 322.969 104.361 323.428 104.11C323.887 103.85 324.381 103.72 324.91 103.72ZM336.312 107.217C336.312 107.468 336.295 107.702 336.26 107.919H330.774C330.817 108.517 331.03 108.994 331.411 109.349C331.792 109.696 332.265 109.869 332.828 109.869C333.625 109.869 334.189 109.535 334.518 108.868H336.117C335.9 109.527 335.506 110.068 334.934 110.493C334.371 110.909 333.669 111.117 332.828 111.117C332.143 111.117 331.528 110.965 330.982 110.662C330.445 110.35 330.02 109.917 329.708 109.362C329.405 108.799 329.253 108.149 329.253 107.412C329.253 106.675 329.4 106.03 329.695 105.475C329.998 104.912 330.419 104.478 330.956 104.175C331.502 103.872 332.126 103.72 332.828 103.72C333.504 103.72 334.106 103.867 334.635 104.162C335.164 104.457 335.575 104.868 335.87 105.397C336.165 105.926 336.312 106.532 336.312 107.217ZM334.765 106.853C334.756 106.272 334.561 105.813 334.18 105.475C333.807 105.137 333.335 104.968 332.763 104.968C332.243 104.968 331.797 105.137 331.424 105.475C331.06 105.813 330.848 106.272 330.787 106.853H334.765ZM341.384 103.72C341.948 103.72 342.45 103.837 342.892 104.071C343.343 104.305 343.694 104.652 343.945 105.111C344.197 105.57 344.322 106.125 344.322 106.775V111H342.853V106.996C342.853 106.355 342.693 105.865 342.372 105.527C342.052 105.18 341.614 105.007 341.059 105.007C340.505 105.007 340.063 105.18 339.733 105.527C339.413 105.865 339.252 106.355 339.252 106.996V111H337.77V103.837H339.252V104.656C339.495 104.361 339.803 104.132 340.175 103.967C340.557 103.802 340.96 103.72 341.384 103.72ZM347.942 105.046V109.011C347.942 109.28 348.002 109.475 348.124 109.596C348.254 109.709 348.47 109.765 348.774 109.765H349.684V111H348.514C347.846 111 347.335 110.844 346.98 110.532C346.624 110.22 346.447 109.713 346.447 109.011V105.046H345.602V103.837H346.447V102.056H347.942V103.837H349.684V105.046H347.942ZM353.624 111.117C353.069 111.117 352.571 111.017 352.129 110.818C351.687 110.61 351.336 110.333 351.076 109.986C350.816 109.631 350.677 109.236 350.66 108.803H352.194C352.22 109.132 352.363 109.405 352.623 109.622C352.891 109.839 353.225 109.947 353.624 109.947C354.04 109.947 354.36 109.865 354.586 109.7C354.82 109.527 354.937 109.297 354.937 109.011C354.937 108.751 354.807 108.552 354.547 108.413C354.287 108.274 353.884 108.136 353.338 107.997C352.809 107.85 352.376 107.711 352.038 107.581C351.708 107.442 351.422 107.234 351.18 106.957C350.937 106.671 350.816 106.303 350.816 105.852C350.816 105.462 350.924 105.107 351.141 104.786C351.357 104.457 351.669 104.197 352.077 104.006C352.493 103.815 352.978 103.72 353.533 103.72C354.347 103.72 355.002 103.928 355.496 104.344C355.998 104.751 356.267 105.31 356.302 106.021H354.82C354.794 105.674 354.664 105.401 354.43 105.202C354.196 104.994 353.879 104.89 353.481 104.89C353.091 104.89 352.792 104.972 352.584 105.137C352.376 105.293 352.272 105.505 352.272 105.774C352.272 105.965 352.341 106.125 352.48 106.255C352.618 106.385 352.792 106.489 353 106.567C353.208 106.636 353.502 106.723 353.884 106.827C354.404 106.966 354.828 107.104 355.158 107.243C355.487 107.382 355.769 107.594 356.003 107.88C356.237 108.157 356.354 108.521 356.354 108.972C356.354 109.379 356.245 109.748 356.029 110.077C355.812 110.398 355.496 110.653 355.08 110.844C354.672 111.026 354.187 111.117 353.624 111.117Z" fill="#E2E2E2"/>
</g>
<g filter="url(#filter6_d_123_831)">
<rect x="224.812" y="132" width="200" height="36" rx="8" fill="black" fill-opacity="0.2" shape-rendering="crispEdges"/>
<rect x="236.812" y="138" width="24" height="24" rx="12" fill="#5AB9EA" fill-opacity="0.1"/>
<path d="M251.172 149.539C251.509 149.214 251.746 148.799 251.855 148.344C251.963 147.888 251.938 147.411 251.783 146.969C251.628 146.527 251.35 146.139 250.981 145.851C250.611 145.563 250.167 145.387 249.701 145.344V144.444C249.701 144.327 249.654 144.214 249.571 144.13C249.487 144.047 249.374 144 249.256 144C249.139 144 249.026 144.047 248.942 144.13C248.859 144.214 248.812 144.327 248.812 144.444V145.333H247.923V144.444C247.923 144.327 247.876 144.214 247.793 144.13C247.71 144.047 247.597 144 247.479 144C247.361 144 247.248 144.047 247.164 144.13C247.081 144.214 247.034 144.327 247.034 144.444V145.333H245.256C245.139 145.333 245.026 145.38 244.942 145.464C244.859 145.547 244.812 145.66 244.812 145.778C244.812 145.896 244.859 146.009 244.942 146.092C245.026 146.175 245.139 146.222 245.256 146.222H245.701V153.778H245.256C245.139 153.778 245.026 153.825 244.942 153.908C244.859 153.991 244.812 154.104 244.812 154.222C244.812 154.34 244.859 154.453 244.942 154.536C245.026 154.62 245.139 154.667 245.256 154.667H247.034V155.556C247.034 155.673 247.081 155.786 247.164 155.87C247.248 155.953 247.361 156 247.479 156C247.597 156 247.71 155.953 247.793 155.87C247.876 155.786 247.923 155.673 247.923 155.556V154.667H248.812V155.556C248.812 155.673 248.859 155.786 248.942 155.87C249.026 155.953 249.139 156 249.256 156C249.374 156 249.487 155.953 249.571 155.87C249.654 155.786 249.701 155.673 249.701 155.556V154.667H250.145C250.762 154.667 251.359 154.453 251.836 154.062C252.312 153.672 252.639 153.128 252.76 152.524C252.881 151.919 252.789 151.292 252.499 150.747C252.21 150.203 251.741 149.776 251.172 149.539ZM251.034 147.778C251.034 148.19 250.87 148.586 250.579 148.878C250.287 149.169 249.891 149.333 249.479 149.333H246.59V146.222H249.479C249.891 146.222 250.287 146.386 250.579 146.678C250.87 146.97 251.034 147.365 251.034 147.778ZM250.145 153.778H246.59V150.222H250.145C250.617 150.222 251.069 150.41 251.402 150.743C251.736 151.076 251.923 151.529 251.923 152C251.923 152.471 251.736 152.924 251.402 153.257C251.069 153.59 250.617 153.778 250.145 153.778Z" fill="#5AB9EA"/>
<path d="M269.566 147.863C269.618 147.057 269.926 146.429 270.489 145.978C271.061 145.527 271.789 145.302 272.673 145.302C273.28 145.302 273.804 145.41 274.246 145.627C274.688 145.844 275.022 146.138 275.247 146.511C275.472 146.884 275.585 147.304 275.585 147.772C275.585 148.309 275.442 148.769 275.156 149.15C274.87 149.531 274.528 149.787 274.129 149.917V149.969C274.64 150.125 275.039 150.411 275.325 150.827C275.611 151.234 275.754 151.759 275.754 152.4C275.754 152.911 275.637 153.366 275.403 153.765C275.169 154.164 274.822 154.48 274.363 154.714C273.904 154.939 273.353 155.052 272.712 155.052C271.776 155.052 271.005 154.814 270.398 154.337C269.8 153.852 269.479 153.158 269.436 152.257H270.866C270.901 152.716 271.078 153.093 271.399 153.388C271.72 153.674 272.153 153.817 272.699 153.817C273.228 153.817 273.635 153.674 273.921 153.388C274.207 153.093 274.35 152.716 274.35 152.257C274.35 151.65 274.155 151.221 273.765 150.97C273.384 150.71 272.794 150.58 271.997 150.58H271.659V149.358H272.01C272.712 149.349 273.245 149.232 273.609 149.007C273.982 148.782 274.168 148.426 274.168 147.941C274.168 147.525 274.034 147.196 273.765 146.953C273.496 146.702 273.115 146.576 272.621 146.576C272.136 146.576 271.759 146.702 271.49 146.953C271.221 147.196 271.061 147.499 271.009 147.863H269.566ZM278.065 146.784C278.576 145.943 279.451 145.523 280.691 145.523C281.93 145.523 282.801 145.943 283.304 146.784C283.815 147.625 284.071 148.777 284.071 150.242C284.071 151.715 283.815 152.872 283.304 153.713C282.801 154.554 281.93 154.974 280.691 154.974C279.451 154.974 278.576 154.554 278.065 153.713C277.562 152.872 277.311 151.715 277.311 150.242C277.311 148.777 277.562 147.625 278.065 146.784ZM281.926 147.33C281.648 147.027 281.237 146.875 280.691 146.875C280.145 146.875 279.733 147.027 279.456 147.33C279.178 147.633 278.992 148.023 278.897 148.5C278.81 148.977 278.767 149.557 278.767 150.242C278.767 150.935 278.81 151.52 278.897 151.997C278.992 152.474 279.178 152.864 279.456 153.167C279.733 153.47 280.145 153.622 280.691 153.622C281.237 153.622 281.648 153.47 281.926 153.167C282.203 152.864 282.385 152.474 282.472 151.997C282.567 151.52 282.615 150.935 282.615 150.242C282.615 149.557 282.567 148.977 282.472 148.5C282.385 148.023 282.203 147.633 281.926 147.33ZM286.393 146.784C286.904 145.943 287.78 145.523 289.019 145.523C290.258 145.523 291.129 145.943 291.632 146.784C292.143 147.625 292.399 148.777 292.399 150.242C292.399 151.715 292.143 152.872 291.632 153.713C291.129 154.554 290.258 154.974 289.019 154.974C287.78 154.974 286.904 154.554 286.393 153.713C285.89 152.872 285.639 151.715 285.639 150.242C285.639 148.777 285.89 147.625 286.393 146.784ZM290.254 147.33C289.977 147.027 289.565 146.875 289.019 146.875C288.473 146.875 288.061 147.027 287.784 147.33C287.507 147.633 287.32 148.023 287.225 148.5C287.138 148.977 287.095 149.557 287.095 150.242C287.095 150.935 287.138 151.52 287.225 151.997C287.32 152.474 287.507 152.864 287.784 153.167C288.061 153.47 288.473 153.622 289.019 153.622C289.565 153.622 289.977 153.47 290.254 153.167C290.531 152.864 290.713 152.474 290.8 151.997C290.895 151.52 290.943 150.935 290.943 150.242C290.943 149.557 290.895 148.977 290.8 148.5C290.713 148.023 290.531 147.633 290.254 147.33ZM301.143 150.97H298.53V153.622H297.126V150.97H294.513V149.644H297.126V146.992H298.53V149.644H301.143V150.97ZM306.846 150.463C306.846 149.579 307.049 148.786 307.457 148.084C307.873 147.382 308.432 146.836 309.134 146.446C309.844 146.047 310.62 145.848 311.461 145.848C312.423 145.848 313.276 146.086 314.022 146.563C314.776 147.031 315.322 147.698 315.66 148.565H313.879C313.645 148.114 313.32 147.776 312.904 147.551C312.488 147.317 312.007 147.2 311.461 147.2C310.863 147.2 310.33 147.334 309.862 147.603C309.394 147.872 309.025 148.253 308.757 148.747C308.497 149.241 308.367 149.813 308.367 150.463C308.367 151.113 308.497 151.689 308.757 152.192C309.025 152.686 309.394 153.067 309.862 153.336C310.33 153.605 310.863 153.739 311.461 153.739C312.007 153.739 312.488 153.626 312.904 153.401C313.32 153.167 313.645 152.825 313.879 152.374H315.66C315.322 153.241 314.776 153.908 314.022 154.376C313.276 154.844 312.423 155.078 311.461 155.078C310.611 155.078 309.836 154.883 309.134 154.493C308.432 154.094 307.873 153.544 307.457 152.842C307.049 152.14 306.846 151.347 306.846 150.463ZM318.876 149.085C319.093 148.652 319.379 148.318 319.734 148.084C320.098 147.841 320.527 147.72 321.021 147.72V149.254H320.644C320.064 149.254 319.622 149.401 319.318 149.696C319.024 149.991 318.876 150.502 318.876 151.23V155H317.394V147.837H318.876V149.085ZM323.19 147.837L325.205 153.297L327.298 147.837H328.832L324.438 158.367H322.904L324.36 154.883L321.539 147.837H323.19ZM331.432 148.89C331.683 148.561 332.026 148.283 332.459 148.058C332.892 147.833 333.382 147.72 333.928 147.72C334.552 147.72 335.12 147.876 335.631 148.188C336.151 148.491 336.558 148.92 336.853 149.475C337.148 150.03 337.295 150.667 337.295 151.386C337.295 152.105 337.148 152.751 336.853 153.323C336.558 153.886 336.151 154.328 335.631 154.649C335.12 154.961 334.552 155.117 333.928 155.117C333.382 155.117 332.897 155.009 332.472 154.792C332.047 154.567 331.701 154.289 331.432 153.96V158.406H329.95V147.837H331.432V148.89ZM335.787 151.386C335.787 150.892 335.683 150.467 335.475 150.112C335.276 149.748 335.007 149.475 334.669 149.293C334.34 149.102 333.984 149.007 333.603 149.007C333.23 149.007 332.875 149.102 332.537 149.293C332.208 149.484 331.939 149.761 331.731 150.125C331.532 150.489 331.432 150.918 331.432 151.412C331.432 151.906 331.532 152.339 331.731 152.712C331.939 153.076 332.208 153.353 332.537 153.544C332.875 153.735 333.23 153.83 333.603 153.83C333.984 153.83 334.34 153.735 334.669 153.544C335.007 153.345 335.276 153.059 335.475 152.686C335.683 152.313 335.787 151.88 335.787 151.386ZM340.49 149.046V153.011C340.49 153.28 340.55 153.475 340.672 153.596C340.802 153.709 341.018 153.765 341.322 153.765H342.232V155H341.062C340.394 155 339.883 154.844 339.528 154.532C339.172 154.22 338.995 153.713 338.995 153.011V149.046H338.15V147.837H338.995V146.056H340.49V147.837H342.232V149.046H340.49ZM346.705 155.117C346.029 155.117 345.418 154.965 344.872 154.662C344.326 154.35 343.897 153.917 343.585 153.362C343.273 152.799 343.117 152.149 343.117 151.412C343.117 150.684 343.277 150.038 343.598 149.475C343.918 148.912 344.356 148.478 344.911 148.175C345.465 147.872 346.085 147.72 346.77 147.72C347.454 147.72 348.074 147.872 348.629 148.175C349.183 148.478 349.621 148.912 349.942 149.475C350.262 150.038 350.423 150.684 350.423 151.412C350.423 152.14 350.258 152.786 349.929 153.349C349.599 153.912 349.149 154.35 348.577 154.662C348.013 154.965 347.389 155.117 346.705 155.117ZM346.705 153.869C347.086 153.869 347.441 153.774 347.771 153.583C348.109 153.392 348.382 153.115 348.59 152.751C348.798 152.378 348.902 151.932 348.902 151.412C348.902 150.892 348.802 150.45 348.603 150.086C348.403 149.713 348.139 149.436 347.81 149.254C347.48 149.063 347.125 148.968 346.744 148.968C346.362 148.968 346.011 149.063 345.691 149.254C345.37 149.436 345.11 149.713 344.911 150.086C344.72 150.45 344.625 150.892 344.625 151.412C344.625 151.932 344.716 152.378 344.898 152.751C345.088 153.124 345.34 153.405 345.652 153.596C345.972 153.778 346.323 153.869 346.705 153.869ZM351.394 151.412C351.394 150.675 351.541 150.03 351.836 149.475C352.139 148.912 352.555 148.478 353.084 148.175C353.612 147.872 354.219 147.72 354.904 147.72C355.77 147.72 356.485 147.928 357.049 148.344C357.621 148.751 358.006 149.336 358.206 150.099H356.607C356.477 149.744 356.269 149.466 355.983 149.267C355.697 149.068 355.337 148.968 354.904 148.968C354.297 148.968 353.812 149.185 353.448 149.618C353.092 150.043 352.915 150.641 352.915 151.412C352.915 152.183 353.092 152.786 353.448 153.219C353.812 153.652 354.297 153.869 354.904 153.869C355.762 153.869 356.329 153.492 356.607 152.738H358.206C357.998 153.466 357.608 154.047 357.036 154.48C356.464 154.905 355.753 155.117 354.904 155.117C354.219 155.117 353.612 154.965 353.084 154.662C352.555 154.35 352.139 153.917 351.836 153.362C351.541 152.799 351.394 152.149 351.394 151.412ZM366.17 147.837V155H364.688V154.155C364.454 154.45 364.146 154.684 363.765 154.857C363.392 155.022 362.993 155.104 362.569 155.104C362.005 155.104 361.498 154.987 361.048 154.753C360.606 154.519 360.255 154.172 359.995 153.713C359.743 153.254 359.618 152.699 359.618 152.049V147.837H361.087V151.828C361.087 152.469 361.247 152.963 361.568 153.31C361.888 153.648 362.326 153.817 362.881 153.817C363.435 153.817 363.873 153.648 364.194 153.31C364.523 152.963 364.688 152.469 364.688 151.828V147.837H366.17ZM369.607 149.085C369.824 148.652 370.11 148.318 370.465 148.084C370.829 147.841 371.258 147.72 371.752 147.72V149.254H371.375C370.794 149.254 370.352 149.401 370.049 149.696C369.754 149.991 369.607 150.502 369.607 151.23V155H368.125V147.837H369.607V149.085ZM374.596 149.085C374.813 148.652 375.099 148.318 375.454 148.084C375.818 147.841 376.247 147.72 376.741 147.72V149.254H376.364C375.783 149.254 375.341 149.401 375.038 149.696C374.743 149.991 374.596 150.502 374.596 151.23V155H373.114V147.837H374.596V149.085ZM384.668 151.217C384.668 151.468 384.651 151.702 384.616 151.919H379.13C379.174 152.517 379.386 152.994 379.767 153.349C380.149 153.696 380.621 153.869 381.184 153.869C381.982 153.869 382.545 153.535 382.874 152.868H384.473C384.257 153.527 383.862 154.068 383.29 154.493C382.727 154.909 382.025 155.117 381.184 155.117C380.5 155.117 379.884 154.965 379.338 154.662C378.801 154.35 378.376 153.917 378.064 153.362C377.761 152.799 377.609 152.149 377.609 151.412C377.609 150.675 377.757 150.03 378.051 149.475C378.355 148.912 378.775 148.478 379.312 148.175C379.858 147.872 380.482 147.72 381.184 147.72C381.86 147.72 382.463 147.867 382.991 148.162C383.52 148.457 383.932 148.868 384.226 149.397C384.521 149.926 384.668 150.532 384.668 151.217ZM383.121 150.853C383.113 150.272 382.918 149.813 382.536 149.475C382.164 149.137 381.691 148.968 381.119 148.968C380.599 148.968 380.153 149.137 379.78 149.475C379.416 149.813 379.204 150.272 379.143 150.853H383.121ZM389.741 147.72C390.304 147.72 390.807 147.837 391.249 148.071C391.7 148.305 392.051 148.652 392.302 149.111C392.553 149.57 392.679 150.125 392.679 150.775V155H391.21V150.996C391.21 150.355 391.05 149.865 390.729 149.527C390.408 149.18 389.971 149.007 389.416 149.007C388.861 149.007 388.419 149.18 388.09 149.527C387.769 149.865 387.609 150.355 387.609 150.996V155H386.127V147.837H387.609V148.656C387.852 148.361 388.159 148.132 388.532 147.967C388.913 147.802 389.316 147.72 389.741 147.72ZM394.075 151.412C394.075 150.675 394.223 150.03 394.517 149.475C394.821 148.912 395.237 148.478 395.765 148.175C396.294 147.872 396.901 147.72 397.585 147.72C398.452 147.72 399.167 147.928 399.73 148.344C400.302 148.751 400.688 149.336 400.887 150.099H399.288C399.158 149.744 398.95 149.466 398.664 149.267C398.378 149.068 398.019 148.968 397.585 148.968C396.979 148.968 396.493 149.185 396.129 149.618C395.774 150.043 395.596 150.641 395.596 151.412C395.596 152.183 395.774 152.786 396.129 153.219C396.493 153.652 396.979 153.869 397.585 153.869C398.443 153.869 399.011 153.492 399.288 152.738H400.887C400.679 153.466 400.289 154.047 399.717 154.48C399.145 154.905 398.435 155.117 397.585 155.117C396.901 155.117 396.294 154.965 395.765 154.662C395.237 154.35 394.821 153.917 394.517 153.362C394.223 152.799 394.075 152.149 394.075 151.412ZM403.118 146.888C402.849 146.888 402.624 146.797 402.442 146.615C402.26 146.433 402.169 146.208 402.169 145.939C402.169 145.67 402.26 145.445 402.442 145.263C402.624 145.081 402.849 144.99 403.118 144.99C403.378 144.99 403.599 145.081 403.781 145.263C403.963 145.445 404.054 145.67 404.054 145.939C404.054 146.208 403.963 146.433 403.781 146.615C403.599 146.797 403.378 146.888 403.118 146.888ZM403.846 147.837V155H402.364V147.837H403.846ZM412.357 151.217C412.357 151.468 412.34 151.702 412.305 151.919H406.819C406.862 152.517 407.075 152.994 407.456 153.349C407.837 153.696 408.31 153.869 408.873 153.869C409.67 153.869 410.234 153.535 410.563 152.868H412.162C411.945 153.527 411.551 154.068 410.979 154.493C410.416 154.909 409.714 155.117 408.873 155.117C408.188 155.117 407.573 154.965 407.027 154.662C406.49 154.35 406.065 153.917 405.753 153.362C405.45 152.799 405.298 152.149 405.298 151.412C405.298 150.675 405.445 150.03 405.74 149.475C406.043 148.912 406.464 148.478 407.001 148.175C407.547 147.872 408.171 147.72 408.873 147.72C409.549 147.72 410.151 147.867 410.68 148.162C411.209 148.457 411.62 148.868 411.915 149.397C412.21 149.926 412.357 150.532 412.357 151.217ZM410.81 150.853C410.801 150.272 410.606 149.813 410.225 149.475C409.852 149.137 409.38 148.968 408.808 148.968C408.288 148.968 407.842 149.137 407.469 149.475C407.105 149.813 406.893 150.272 406.832 150.853H410.81ZM416.389 155.117C415.835 155.117 415.336 155.017 414.894 154.818C414.452 154.61 414.101 154.333 413.841 153.986C413.581 153.631 413.443 153.236 413.425 152.803H414.959C414.985 153.132 415.128 153.405 415.388 153.622C415.657 153.839 415.991 153.947 416.389 153.947C416.805 153.947 417.126 153.865 417.351 153.7C417.585 153.527 417.702 153.297 417.702 153.011C417.702 152.751 417.572 152.552 417.312 152.413C417.052 152.274 416.649 152.136 416.103 151.997C415.575 151.85 415.141 151.711 414.803 151.581C414.474 151.442 414.188 151.234 413.945 150.957C413.703 150.671 413.581 150.303 413.581 149.852C413.581 149.462 413.69 149.107 413.906 148.786C414.123 148.457 414.435 148.197 414.842 148.006C415.258 147.815 415.744 147.72 416.298 147.72C417.113 147.72 417.767 147.928 418.261 148.344C418.764 148.751 419.033 149.31 419.067 150.021H417.585C417.559 149.674 417.429 149.401 417.195 149.202C416.961 148.994 416.645 148.89 416.246 148.89C415.856 148.89 415.557 148.972 415.349 149.137C415.141 149.293 415.037 149.505 415.037 149.774C415.037 149.965 415.107 150.125 415.245 150.255C415.384 150.385 415.557 150.489 415.765 150.567C415.973 150.636 416.268 150.723 416.649 150.827C417.169 150.966 417.594 151.104 417.923 151.243C418.253 151.382 418.534 151.594 418.768 151.88C419.002 152.157 419.119 152.521 419.119 152.972C419.119 153.379 419.011 153.748 418.794 154.077C418.578 154.398 418.261 154.653 417.845 154.844C417.438 155.026 416.953 155.117 416.389 155.117Z" fill="#E2E2E2"/>
</g>
<defs>
<filter id="filter1_d_123_831" x="12.812" y="28" width="216" height="64" filterUnits="userSpaceOnUse" color-interpolation-filters="sRGB">
<feFlood flood-opacity="0" result="BackgroundImageFix"/>
<feColorMatrix in="SourceAlpha" type="matrix" values="0 0 0 0 0 0 0 0 0 0 0 0 0 0 0 0 0 0 127 0" result="hardAlpha"/>
<feOffset dx="4" dy="4"/>
<feGaussianBlur stdDeviation="4"/>
<feComposite in2="hardAlpha" operator="out"/>
<feColorMatrix type="matrix" values="0 0 0 0 0 0 0 0 0 0 0 0 0 0 0 0 0 0 0.05 0"/>
<feBlend mode="normal" in2="BackgroundImageFix" result="effect1_dropShadow_123_831"/>
<feBlend mode="normal" in="SourceGraphic" in2="effect1_dropShadow_123_831" result="shape"/>
</filter>
<filter id="filter2_d_123_831" x="12.812" y="84" width="216" height="52" filterUnits="userSpaceOnUse" color-interpolation-filters="sRGB">
<feFlood flood-opacity="0" result="BackgroundImageFix"/>
<feColorMatrix in="SourceAlpha" type="matrix" values="0 0 0 0 0 0 0 0 0 0 0 0 0 0 0 0 0 0 127 0" result="hardAlpha"/>
<feOffset dx="4" dy="4"/>
<feGaussianBlur stdDeviation="4"/>
<feComposite in2="hardAlpha" operator="out"/>
<feColorMatrix type="matrix" values="0 0 0 0 0 0 0 0 0 0 0 0 0 0 0 0 0 0 0.05 0"/>
<feBlend mode="normal" in2="BackgroundImageFix" result="effect1_dropShadow_123_831"/>
<feBlend mode="normal" in="SourceGraphic" in2="effect1_dropShadow_123_831" result="shape"/>
</filter>
<filter id="filter3_d_123_831" x="12.812" y="128" width="216" height="52" filterUnits="userSpaceOnUse" color-interpolation-filters="sRGB">
<feFlood flood-opacity="0" result="BackgroundImageFix"/>
<feColorMatrix in="SourceAlpha" type="matrix" values="0 0 0 0 0 0 0 0 0 0 0 0 0 0 0 0 0 0 127 0" result="hardAlpha"/>
<feOffset dx="4" dy="4"/>
<feGaussianBlur stdDeviation="4"/>
<feComposite in2="hardAlpha" operator="out"/>
<feColorMatrix type="matrix" values="0 0 0 0 0 0 0 0 0 0 0 0 0 0 0 0 0 0 0.05 0"/>
<feBlend mode="normal" in2="BackgroundImageFix" result="effect1_dropShadow_123_831"/>
<feBlend mode="normal" in="SourceGraphic" in2="effect1_dropShadow_123_831" result="shape"/>
</filter>
<filter id="filter4_d_123_831" x="220.812" y="28" width="216" height="64" filterUnits="userSpaceOnUse" color-interpolation-filters="sRGB">
<feFlood flood-opacity="0" result="BackgroundImageFix"/>
<feColorMatrix in="SourceAlpha" type="matrix" values="0 0 0 0 0 0 0 0 0 0 0 0 0 0 0 0 0 0 127 0" result="hardAlpha"/>
<feOffset dx="4" dy="4"/>
<feGaussianBlur stdDeviation="4"/>
<feComposite in2="hardAlpha" operator="out"/>
<feColorMatrix type="matrix" values="0 0 0 0 0 0 0 0 0 0 0 0 0 0 0 0 0 0 0.05 0"/>
<feBlend mode="normal" in2="BackgroundImageFix" result="effect1_dropShadow_123_831"/>
<feBlend mode="normal" in="SourceGraphic" in2="effect1_dropShadow_123_831" result="shape"/>
</filter>
<filter id="filter5_d_123_831" x="220.812" y="84" width="216" height="52" filterUnits="userSpaceOnUse" color-interpolation-filters="sRGB">
<feFlood flood-opacity="0" result="BackgroundImageFix"/>
<feColorMatrix in="SourceAlpha" type="matrix" values="0 0 0 0 0 0 0 0 0 0 0 0 0 0 0 0 0 0 127 0" result="hardAlpha"/>
<feOffset dx="4" dy="4"/>
<feGaussianBlur stdDeviation="4"/>
<feComposite in2="hardAlpha" operator="out"/>
<feColorMatrix type="matrix" values="0 0 0 0 0 0 0 0 0 0 0 0 0 0 0 0 0 0 0.05 0"/>
<feBlend mode="normal" in2="BackgroundImageFix" result="effect1_dropShadow_123_831"/>
<feBlend mode="normal" in="SourceGraphic" in2="effect1_dropShadow_123_831" result="shape"/>
</filter>
<filter id="filter6_d_123_831" x="220.812" y="128" width="216" height="52" filterUnits="userSpaceOnUse" color-interpolation-filters="sRGB">
<feFlood flood-opacity="0" result="BackgroundImageFix"/>
<feColorMatrix in="SourceAlpha" type="matrix" values="0 0 0 0 0 0 0 0 0 0 0 0 0 0 0 0 0 0 127 0" result="hardAlpha"/>
<feOffset dx="4" dy="4"/>
<feGaussianBlur stdDeviation="4"/>
<feComposite in2="hardAlpha" operator="out"/>
<feColorMatrix type="matrix" values="0 0 0 0 0 0 0 0 0 0 0 0 0 0 0 0 0 0 0.05 0"/>
<feBlend mode="normal" in2="BackgroundImageFix" result="effect1_dropShadow_123_831"/>
<feBlend mode="normal" in="SourceGraphic" in2="effect1_dropShadow_123_831" result="shape"/>
</filter>
</defs>
</svg>
